<svg width="15" height="16" viewBox="0 0 15 16" fill="none" xmlns="http://www.w3.org/2000/svg">
<path d="M11.7781 3.94495C10.4031 3.62061 8.94662 3.93164 8.15371 4.71863C8.11227 4.75964 8.06679 4.79639 8.01791 4.82849C8.19411 3.17249 9.69013 1.875 11.5036 1.875C11.78 1.875 12.0041 1.66516 12.0041 1.40625C12.0041 1.14734 11.78 0.9375 11.5036 0.9375C10.0458 0.9375 8.74774 1.58972 7.92408 2.59888C7.58784 1.11597 6.17914 0 4.49729 0H2.49548C2.21906 0 1.99502 0.209839 1.99502 0.46875C1.99502 2.27808 3.5665 3.74963 5.49819 3.74963H7.2572C7.1257 4.0968 7.04138 4.46497 7.01167 4.8468C6.95146 4.81042 6.89542 4.76746 6.84563 4.71802C6.01102 3.89014 4.65237 3.56641 3.29972 3.87341C1.84841 4.20276 0.736987 5.19324 0.326851 6.52295C-0.0358467 7.69849 -0.0999671 9.1366 0.150911 10.4686C0.421598 11.9069 1.02201 13.2642 1.84163 14.2908C2.72159 15.3929 3.77124 16 4.79691 16C5.20782 16 5.60245 15.9056 5.96958 15.7196C6.44331 15.4792 6.97257 15.3523 7.5 15.3523C8.0273 15.3523 8.55694 15.4794 9.03055 15.7192C9.39637 15.9055 9.79087 16 10.2031 16C11.2289 16 12.2784 15.3929 13.1585 14.2906C13.978 13.2642 14.5785 11.9066 14.8491 10.4683C15.091 9.18433 15.0403 7.78918 14.71 6.6405C14.3172 5.27429 13.2487 4.29175 11.7781 3.94495ZM5.49819 2.8125C4.28981 2.8125 3.27874 2.00598 3.04623 0.9375H4.49729C5.70567 0.9375 6.71674 1.74402 6.94924 2.8125H5.49819ZM13.8634 10.3054C13.6195 11.6021 13.0843 12.818 12.3569 13.7292C11.6803 14.5765 10.8954 15.0625 10.2031 15.0625C9.95977 15.0625 9.72623 15.0063 9.50767 14.895C8.88706 14.5808 8.19294 14.4148 7.5 14.4148C6.80666 14.4148 6.11268 14.5809 5.49324 14.8951C5.27403 15.0062 5.0397 15.0625 4.79691 15.0625C4.10461 15.0625 3.31966 14.5765 2.64314 13.7292C1.91553 12.8181 1.38054 11.6023 1.13657 10.3058C0.914621 9.12744 0.971444 7.81067 1.2884 6.7832C1.60222 5.76587 2.42119 5.03748 3.53548 4.78455C4.52465 4.56006 5.5382 4.78662 6.11789 5.36169C6.47511 5.71594 6.97856 5.91919 7.49922 5.91943H7.5H7.50026C8.02143 5.91931 8.52488 5.71619 8.88159 5.36218C9.42491 4.82288 10.5155 4.61401 11.5336 4.85413C12.1851 5.00781 13.3386 5.47583 13.7435 6.88428C14.0327 7.88989 14.0776 9.16882 13.8634 10.3054Z" fill="#7482FF"/>
</svg>
