<svg width="16" height="16" viewBox="0 0 16 16" fill="none" xmlns="http://www.w3.org/2000/svg">
<path d="M13.8561 8.1095L14.7636 7.20197C16.4121 5.55343 16.4123 2.88515 14.7636 1.23646C13.1151 -0.412044 10.4468 -0.412262 8.79811 1.23646C8.44623 1.58827 1.55563 8.47894 1.23647 8.79809C-0.412063 10.4466 -0.412251 13.1149 1.23647 14.7636C2.88494 16.4121 5.55326 16.4123 7.20195 14.7636L8.10951 13.8561C8.83501 15.1345 10.2088 15.9991 11.7808 15.9991C14.1068 15.9991 15.9991 14.1068 15.9991 11.7808C15.9991 10.2088 15.1346 8.835 13.8561 8.1095ZM7.56257 11.7808C7.56257 12.1757 7.61726 12.558 7.71917 12.9207L6.53913 14.1008C5.25698 15.3829 3.18163 15.3831 1.89932 14.1008C0.617157 12.8186 0.61697 10.7433 1.89932 9.46094L5.3201 6.04015L8.46111 9.18113C7.89845 9.89803 7.56257 10.8009 7.56257 11.7808ZM11.3121 15.0281C9.72426 14.7999 8.49995 13.4308 8.49995 11.7808C8.49995 10.1308 9.72426 8.76169 11.3121 8.53356V15.0281ZM9.1177 8.51209L5.98291 5.37731L9.46092 1.8993C10.7431 0.617177 12.8184 0.616989 14.1007 1.8993C15.3829 3.18143 15.3831 5.25681 14.1007 6.53912L12.9207 7.71916C12.558 7.61722 12.1757 7.56256 11.7808 7.56256C10.7718 7.56256 9.84445 7.9189 9.1177 8.51209ZM12.2495 15.0281V8.53359C13.8374 8.76172 15.0617 10.1309 15.0617 11.7808C15.0617 13.4308 13.8374 14.7999 12.2495 15.0281Z" fill="#7482FF"/>
</svg>
