<svg width="17" height="17" viewBox="0 0 17 17" fill="none" xmlns="http://www.w3.org/2000/svg">
<path d="M14.6551 4.68966C15.9501 4.68966 17 3.63989 17 2.34483C17 1.04991 15.9501 0 14.6551 0C13.3601 0 12.3103 1.04991 12.3103 2.34483C12.3117 3.63932 13.3606 4.68822 14.6551 4.68966ZM14.6551 0.586207C15.6263 0.586207 16.4138 1.37364 16.4138 2.34483C16.4138 3.31616 15.6263 4.10345 14.6551 4.10345C13.6838 4.10345 12.8965 3.31616 12.8965 2.34483C12.8974 1.37407 13.6842 0.587209 14.6551 0.586207Z" fill="#7482FF"/>
<path d="M4.80627 6.44828C5.1479 6.44883 5.47583 6.31764 5.71737 6.08342L8.35214 3.53123L10.1109 5.23467C10.6139 5.72188 11.4294 5.72188 11.9324 5.23467L11.9342 5.23301C12.4358 4.74553 12.4358 3.95685 11.9342 3.46936L9.3843 1.0003C8.81425 0.448183 7.89004 0.448183 7.31985 1.0003L3.89403 4.31811C3.52588 4.67524 3.41609 5.21202 3.61571 5.67824C3.81547 6.14433 4.28513 6.44828 4.80627 6.44828ZM4.30695 4.71915L7.73277 1.40009C8.07482 1.06893 8.62932 1.06893 8.97152 1.40009L11.5213 3.87067C11.7954 4.13707 11.7954 4.56807 11.5213 4.83446L11.5195 4.83626C11.2443 5.10196 10.799 5.10196 10.5238 4.83626L8.5586 2.93257C8.44454 2.82209 8.25975 2.82209 8.14568 2.93257L5.30417 5.68349C5.02513 5.94215 4.58498 5.94146 4.30695 5.68183C4.03362 5.41558 4.03362 4.9854 4.30695 4.71915Z" fill="#7482FF"/>
<path d="M15.8276 7.62062H12.8966V6.15505C12.8966 6.03655 12.8252 5.92978 12.7155 5.88441C12.6061 5.83904 12.48 5.86409 12.3962 5.94781L10.6376 7.70649C10.5827 7.76145 10.5518 7.83602 10.5518 7.91373V9.08618C10.5518 9.57194 10.9453 9.96552 11.4311 9.96552H15.8276C16.4751 9.96552 17 9.4407 17 8.79307C17 8.14559 16.4751 7.62062 15.8276 7.62062ZM15.8276 9.3793H11.4311C11.2692 9.3793 11.138 9.24805 11.138 9.08618V8.0351L12.3104 6.86265V7.91373C12.3104 8.0756 12.4416 8.20684 12.6035 8.20684H15.8276C16.1514 8.20684 16.4138 8.46933 16.4138 8.79307C16.4138 9.11696 16.1514 9.3793 15.8276 9.3793Z" fill="#7482FF"/>
<path d="M6.95484 11.3688L5.62939 10.0428C5.52042 9.93977 5.35004 9.93977 5.2412 10.0428L0.354686 14.9314C-0.118229 15.4044 -0.118229 16.1713 0.354686 16.6443V16.6457C0.827734 17.1181 1.59381 17.1181 2.06685 16.6457L6.95337 11.7571C7.06101 11.6502 7.06154 11.4764 6.95484 11.3688ZM1.67946 16.2574C1.42102 16.5155 1.0024 16.5155 0.743955 16.2574H0.742883C0.484308 15.999 0.484308 15.5798 0.742883 15.3214L5.43503 10.6253L6.37228 11.5632L1.67946 16.2574Z" fill="#7482FF"/>
<path d="M9.26634 9.17329C8.95755 8.84902 8.50116 8.71945 8.07236 8.83419C7.64342 8.94907 7.30853 9.29053 7.19572 9.72789C7.08305 10.1651 7.20999 10.6305 7.52816 10.9455L9.70289 13.1623L7.06579 14.5952C6.47933 14.9368 6.27464 15.698 6.60845 16.2967L6.648 16.3711C6.86872 16.7604 7.27632 17.0001 7.71735 17C7.92815 17.0003 8.13528 16.9442 8.31808 16.8372L11.7512 14.9546L12.1966 14.6938C12.5727 14.4741 12.827 14.0882 12.8843 13.65C12.9415 13.2119 12.7953 12.7715 12.4888 12.459L9.26634 9.17329ZM12.3324 13.5758C12.2985 13.8383 12.1459 14.0695 11.9202 14.2003L8.04748 16.3408C7.72795 16.5274 7.32049 16.4176 7.13347 16.0941L7.09365 16.0197C6.91139 15.6954 7.01849 15.282 7.33408 15.0919L10.296 13.483C10.3739 13.4407 10.4274 13.3633 10.4404 13.2743C10.4533 13.1853 10.4242 13.0954 10.3617 13.0318L7.92149 10.5441C7.65877 10.2763 7.65877 9.84194 7.92149 9.57407C8.18421 9.30619 8.61016 9.30619 8.87288 9.57407L12.0967 12.8603C12.2813 13.0477 12.3685 13.3128 12.3324 13.5758Z" fill="#7482FF"/>
</svg>
