<svg width="184" height="224" viewBox="0 0 184 224" fill="none" xmlns="http://www.w3.org/2000/svg">
<rect width="184" height="224" rx="14" fill="#0C1B37"/>
<path d="M29.33 32L27.104 28.192C28.266 27.73 29.05 26.596 29.05 25.35C29.05 24.468 28.742 23.726 28.126 23.124C27.524 22.508 26.782 22.2 25.9 22.2H21.98V32H23.59V28.43H25.494L27.566 32H29.33ZM25.9 23.712C26.754 23.712 27.44 24.44 27.44 25.35C27.44 26.26 26.754 26.988 25.9 26.988H23.59V23.712H25.9ZM36.8608 29.144C36.9028 28.878 36.9168 28.668 36.9168 28.514C36.9168 27.492 36.5808 26.61 35.9228 25.896C35.2648 25.182 34.4248 24.818 33.4028 24.818C32.3248 24.818 31.4288 25.168 30.7428 25.882C30.0568 26.582 29.7068 27.45 29.7068 28.5C29.7068 29.564 30.0568 30.446 30.7568 31.146C31.4568 31.832 32.3808 32.182 33.5148 32.182C34.8728 32.182 35.8948 31.678 36.5808 30.656L35.3348 29.928C34.9288 30.502 34.3268 30.796 33.5288 30.796C32.3668 30.796 31.5128 30.208 31.2888 29.144H36.8608ZM31.2748 27.912C31.4848 26.848 32.2688 26.19 33.3888 26.19C34.3828 26.19 35.1808 26.778 35.3908 27.912H31.2748ZM41.9345 25H40.1985V23.04L38.6865 23.488V25H37.3985V26.456H38.6865V29.816C38.6865 31.65 39.6245 32.28 41.9345 32V30.642C40.7865 30.698 40.1985 30.712 40.1985 29.816V26.456H41.9345V25ZM46.3227 32.182C47.3587 32.182 48.2267 31.832 48.9407 31.118C49.6547 30.404 50.0187 29.536 50.0187 28.5C50.0187 27.464 49.6547 26.596 48.9407 25.882C48.2267 25.168 47.3587 24.818 46.3227 24.818C45.3007 24.818 44.4187 25.168 43.7047 25.882C42.9907 26.596 42.6267 27.464 42.6267 28.5C42.6267 29.536 42.9907 30.404 43.7047 31.118C44.4187 31.832 45.3007 32.182 46.3227 32.182ZM44.7687 30.082C44.3487 29.662 44.1387 29.13 44.1387 28.5C44.1387 27.87 44.3487 27.338 44.7687 26.918C45.1887 26.498 45.7067 26.288 46.3227 26.288C46.9387 26.288 47.4567 26.498 47.8767 26.918C48.2967 27.338 48.5067 27.87 48.5067 28.5C48.5067 29.13 48.2967 29.662 47.8767 30.082C47.4567 30.502 46.9387 30.712 46.3227 30.712C45.7067 30.712 45.1887 30.502 44.7687 30.082ZM56.1039 28.752C56.1039 30.11 55.3899 30.768 54.3259 30.768C53.3599 30.768 52.7579 30.194 52.7579 29.144V25H51.2459V29.298C51.2459 31.09 52.3239 32.182 53.9339 32.182C54.9279 32.182 55.6419 31.818 56.1039 31.104V32H57.6159V25H56.1039V28.752ZM60.896 25H59.384V32H60.896V28.472C60.896 27.758 61.106 27.24 61.54 26.932C61.974 26.61 62.478 26.47 63.052 26.512V24.874C62.002 24.874 61.274 25.308 60.896 26.176V25Z" fill="#C1C8FF"/>
<path d="M30.31 55L26.866 45.2H24.472L21.042 55H23.128L23.716 53.236H27.622L28.21 55H30.31ZM25.676 47.426L27.02 51.43H24.332L25.676 47.426ZM32.9836 55V44.78H31.1776V55H32.9836ZM35.5325 47.16C36.1485 47.16 36.6525 46.656 36.6525 46.054C36.6525 45.452 36.1485 44.934 35.5325 44.934C34.9305 44.934 34.4265 45.452 34.4265 46.054C34.4265 46.656 34.9305 47.16 35.5325 47.16ZM36.4425 55V48H34.6365V55H36.4425ZM45.8375 47.804C44.9135 47.804 44.2135 48.14 43.7515 48.812C43.3455 48.14 42.7015 47.804 41.8475 47.804C40.9655 47.804 40.3215 48.112 39.9015 48.742V48H38.0955V55H39.9015V51.066C39.9015 50.044 40.4195 49.484 41.2175 49.484C41.9595 49.484 42.3935 49.974 42.3935 50.814V55H44.1995V51.066C44.1995 50.044 44.6755 49.484 45.5015 49.484C46.2435 49.484 46.6775 49.974 46.6775 50.814V55H48.4835V50.688C48.4835 48.938 47.4475 47.804 45.8375 47.804ZM56.8214 52.242C56.8634 51.976 56.8914 51.738 56.8914 51.5C56.8914 50.45 56.5554 49.582 55.8834 48.868C55.2254 48.154 54.3714 47.804 53.3494 47.804C52.2714 47.804 51.3754 48.154 50.6894 48.868C50.0034 49.568 49.6534 50.45 49.6534 51.5C49.6534 52.564 50.0034 53.446 50.7034 54.146C51.4034 54.846 52.3274 55.196 53.4894 55.196C54.8334 55.196 55.8554 54.692 56.5414 53.698L55.0854 52.858C54.7354 53.32 54.2034 53.558 53.5174 53.558C52.4394 53.558 51.7814 53.124 51.5434 52.242H56.8214ZM51.5154 50.842C51.7254 49.946 52.3834 49.428 53.3494 49.428C54.1754 49.428 54.8754 49.89 55.0854 50.842H51.5154ZM62.0442 47.804C61.0922 47.804 60.3922 48.126 59.9582 48.784V48H58.1522V55H59.9582V51.22C59.9582 50.058 60.5602 49.484 61.4982 49.484C62.3382 49.484 62.8842 49.988 62.8842 50.926V55H64.6902V50.702C64.6902 49.792 64.4382 49.092 63.9342 48.574C63.4442 48.056 62.8142 47.804 62.0442 47.804ZM70.2363 48H68.6543V46.04L66.8483 46.586V48H65.6303V49.736H66.8483V52.648C66.8483 54.566 67.7583 55.28 70.2363 55V53.362C69.2003 53.418 68.6543 53.404 68.6543 52.648V49.736H70.2363V48ZM76.6108 48.826C76.0648 48.14 75.3088 47.804 74.3288 47.804C73.3908 47.804 72.5928 48.168 71.9208 48.882C71.2628 49.596 70.9268 50.464 70.9268 51.5C70.9268 52.536 71.2628 53.418 71.9208 54.132C72.5928 54.846 73.3908 55.196 74.3288 55.196C75.3088 55.196 76.0648 54.86 76.6108 54.174V55H78.4168V48H76.6108V48.826ZM73.2788 52.928C72.9148 52.55 72.7328 52.074 72.7328 51.5C72.7328 50.926 72.9148 50.45 73.2788 50.086C73.6428 49.708 74.1048 49.526 74.6648 49.526C75.2248 49.526 75.6868 49.708 76.0508 50.086C76.4288 50.45 76.6108 50.926 76.6108 51.5C76.6108 52.074 76.4288 52.55 76.0508 52.928C75.6868 53.292 75.2248 53.474 74.6648 53.474C74.1048 53.474 73.6428 53.292 73.2788 52.928ZM84.0585 48H82.4765V46.04L80.6705 46.586V48H79.4525V49.736H80.6705V52.648C80.6705 54.566 81.5805 55.28 84.0585 55V53.362C83.0225 53.418 82.4765 53.404 82.4765 52.648V49.736H84.0585V48ZM86.2279 47.16C86.8439 47.16 87.3479 46.656 87.3479 46.054C87.3479 45.452 86.8439 44.934 86.2279 44.934C85.6259 44.934 85.1219 45.452 85.1219 46.054C85.1219 46.656 85.6259 47.16 86.2279 47.16ZM87.1379 55V48H85.3319V55H87.1379ZM94.7548 54.132C95.4688 53.418 95.8328 52.536 95.8328 51.5C95.8328 50.464 95.4688 49.596 94.7548 48.882C94.0408 48.168 93.1588 47.804 92.1228 47.804C91.0868 47.804 90.2048 48.168 89.4908 48.882C88.7768 49.596 88.4268 50.464 88.4268 51.5C88.4268 52.536 88.7768 53.418 89.4908 54.132C90.2048 54.846 91.0868 55.196 92.1228 55.196C93.1588 55.196 94.0408 54.846 94.7548 54.132ZM90.7648 52.886C90.4148 52.522 90.2328 52.06 90.2328 51.5C90.2328 50.94 90.4148 50.478 90.7648 50.114C91.1288 49.75 91.5768 49.568 92.1228 49.568C92.6688 49.568 93.1168 49.75 93.4808 50.114C93.8448 50.478 94.0268 50.94 94.0268 51.5C94.0268 52.06 93.8448 52.522 93.4808 52.886C93.1168 53.25 92.6688 53.432 92.1228 53.432C91.5768 53.432 91.1288 53.25 90.7648 52.886ZM100.995 47.804C100.043 47.804 99.3433 48.126 98.9093 48.784V48H97.1033V55H98.9093V51.22C98.9093 50.058 99.5113 49.484 100.449 49.484C101.289 49.484 101.835 49.988 101.835 50.926V55H103.641V50.702C103.641 49.792 103.389 49.092 102.885 48.574C102.395 48.056 101.765 47.804 100.995 47.804Z" fill="#C1C8FF"/>
<circle cx="81.5" cy="208.5" r="2.5" fill="#7482FF"/>
<circle cx="92.5" cy="208.5" r="2.5" fill="#39428C"/>
<circle cx="103.5" cy="208.5" r="2.5" fill="#39428C"/>
<path d="M79.975 149.6L84.61 144.5H82.9L78.52 149.24V144.5H77.125V155H78.52V149.96L83.05 155H84.76L79.975 149.6ZM88.7181 155.195C90.1731 155.195 91.4481 154.43 92.0931 153.245L90.9831 152.6C90.5631 153.395 89.7231 153.905 88.7181 153.905C87.9681 153.905 87.3381 153.65 86.8281 153.14C86.3331 152.63 86.0781 152 86.0781 151.25C86.0781 150.485 86.3331 149.855 86.8281 149.345C87.3381 148.835 87.9681 148.58 88.7181 148.58C89.7231 148.58 90.5631 149.105 90.9381 149.9L92.0331 149.27C91.4481 148.07 90.2031 147.305 88.7181 147.305C87.5931 147.305 86.6481 147.68 85.8981 148.445C85.1481 149.195 84.7731 150.125 84.7731 151.25C84.7731 152.375 85.1481 153.305 85.8981 154.07C86.6481 154.82 87.5931 155.195 88.7181 155.195ZM99.4891 148.79C98.8441 147.8 97.8991 147.305 96.6541 147.305C95.6041 147.305 94.7041 147.695 93.9691 148.46C93.2341 149.225 92.8591 150.155 92.8591 151.25C92.8591 152.345 93.2341 153.29 93.9691 154.055C94.7041 154.82 95.6041 155.195 96.6541 155.195C97.8991 155.195 98.8441 154.7 99.4891 153.71V155H100.794V147.5H99.4891V148.79ZM96.8191 153.935C96.0691 153.935 95.4391 153.68 94.9291 153.17C94.4191 152.645 94.1641 152.015 94.1641 151.25C94.1641 150.485 94.4191 149.855 94.9291 149.345C95.4391 148.82 96.0691 148.565 96.8191 148.565C97.5841 148.565 98.2141 148.82 98.7241 149.345C99.2341 149.855 99.4891 150.485 99.4891 151.25C99.4891 152.015 99.2341 152.645 98.7241 153.17C98.2141 153.68 97.5841 153.935 96.8191 153.935ZM104.076 155V144.05H102.771V155H104.076Z" fill="white"/>
<path d="M61.33 116.95L62.35 120.49L66.31 119.38V136H70.45V115H66.85L61.33 116.95ZM82.0516 136.42C84.6916 136.42 86.7616 135.43 88.2316 133.45C89.7016 131.44 90.4516 128.8 90.4516 125.5C90.4516 122.2 89.7016 119.56 88.2316 117.58C86.7616 115.57 84.6916 114.58 82.0516 114.58C79.4416 114.58 77.3716 115.57 75.8716 117.58C74.4016 119.56 73.6516 122.2 73.6516 125.5C73.6516 128.8 74.4016 131.44 75.8716 133.45C77.3716 135.43 79.4416 136.42 82.0516 136.42ZM86.3416 125.5C86.3416 129.94 84.8416 132.37 82.0516 132.37C79.2616 132.37 77.7916 129.97 77.7916 125.5C77.7916 121.03 79.2616 118.6 82.0516 118.6C84.8416 118.6 86.3416 121.03 86.3416 125.5ZM105.821 136V132.01H97.9307L102.041 127.9C104.351 125.59 105.491 123.37 105.491 121.18C105.491 119.17 104.801 117.55 103.451 116.38C102.101 115.18 100.451 114.58 98.5607 114.58C95.5907 114.58 92.9507 116.14 91.6307 119.02L95.1107 121.06C95.8607 119.41 97.0307 118.6 98.6207 118.6C100.211 118.6 101.351 119.68 101.351 121.33C101.351 122.44 100.541 123.85 98.9507 125.53L91.7807 132.91V136H105.821ZM119.727 115H114.987L108.447 124.87C107.637 126.1 107.217 127.51 107.217 129.1C107.217 131.26 107.907 133.03 109.317 134.38C110.727 135.73 112.557 136.42 114.807 136.42C117.057 136.42 118.887 135.73 120.297 134.38C121.707 133 122.427 131.23 122.427 129.1C122.427 127 121.737 125.29 120.387 123.94C119.037 122.59 117.267 121.87 115.077 121.81L119.727 115ZM118.317 129.1C118.317 131.17 116.817 132.52 114.807 132.52C112.797 132.52 111.327 131.17 111.327 129.1C111.327 127.03 112.797 125.71 114.807 125.71C116.817 125.71 118.317 127.06 118.317 129.1Z" fill="#FFBA7B"/>
<circle cx="92.5" cy="132.5" r="47" stroke="#222862" stroke-width="7"/>
<g filter="url(#filter0_d)">
<path d="M129.001 105C134.632 112.606 138 121.964 138 132.142C138 157.479 117.296 178 91.7333 178C72.4646 178.055 56.0118 166.453 49 149.982" stroke="#FFBA7B" stroke-width="9" stroke-miterlimit="10" stroke-linecap="round"/>
</g>
<path d="M21.216 68.6V69.656H23.688V77H24.792V69.656H27.276V68.6H21.216ZM32.2466 76.244C32.8586 75.632 33.1706 74.888 33.1706 74C33.1706 73.112 32.8586 72.368 32.2466 71.756C31.6346 71.144 30.8786 70.844 30.0026 70.844C29.1266 70.844 28.3706 71.144 27.7586 71.756C27.1466 72.368 26.8466 73.112 26.8466 74C26.8466 74.888 27.1466 75.632 27.7586 76.244C28.3706 76.856 29.1266 77.156 30.0026 77.156C30.8786 77.156 31.6346 76.856 32.2466 76.244ZM30.0026 76.136C29.4146 76.136 28.9106 75.932 28.5026 75.524C28.0946 75.116 27.8906 74.612 27.8906 74C27.8906 73.388 28.0946 72.884 28.5026 72.476C28.9106 72.068 29.4146 71.864 30.0026 71.864C30.6026 71.864 31.1066 72.068 31.5146 72.476C31.9226 72.884 32.1266 73.388 32.1266 74C32.1266 74.612 31.9226 75.116 31.5146 75.524C31.1066 75.932 30.6026 76.136 30.0026 76.136ZM37.5365 71H35.9405V69.32L34.8965 69.632V71H33.7085V72.008H34.8965V75.26C34.8965 76.748 35.7125 77.24 37.5365 77V76.064C36.4685 76.112 35.9405 76.184 35.9405 75.26V72.008H37.5365V71ZM43.4358 72.032C42.9198 71.24 42.1638 70.844 41.1678 70.844C40.3278 70.844 39.6078 71.156 39.0198 71.768C38.4318 72.38 38.1318 73.124 38.1318 74C38.1318 74.876 38.4318 75.632 39.0198 76.244C39.6078 76.856 40.3278 77.156 41.1678 77.156C42.1638 77.156 42.9198 76.76 43.4358 75.968V77H44.4798V71H43.4358V72.032ZM41.2998 76.148C40.6998 76.148 40.1958 75.944 39.7878 75.536C39.3798 75.116 39.1758 74.612 39.1758 74C39.1758 73.388 39.3798 72.884 39.7878 72.476C40.1958 72.056 40.6998 71.852 41.2998 71.852C41.9118 71.852 42.4158 72.056 42.8238 72.476C43.2318 72.884 43.4358 73.388 43.4358 74C43.4358 74.612 43.2318 75.116 42.8238 75.536C42.4158 75.944 41.9118 76.148 41.2998 76.148ZM47.1055 77V68.24H46.0615V77H47.1055Z" fill="#C7C7C7"/>
<defs>
<filter id="filter0_d" x="40.4988" y="97.4997" width="106.001" height="90.0003" filterUnits="userSpaceOnUse" color-interpolation-filters="sRGB">
<feFlood flood-opacity="0" result="BackgroundImageFix"/>
<feColorMatrix in="SourceAlpha" type="matrix" values="0 0 0 0 0 0 0 0 0 0 0 0 0 0 0 0 0 0 127 0"/>
<feOffset dy="1"/>
<feGaussianBlur stdDeviation="2"/>
<feColorMatrix type="matrix" values="0 0 0 0 1 0 0 0 0 0.6 0 0 0 0 0.141176 0 0 0 0.53 0"/>
<feBlend mode="normal" in2="BackgroundImageFix" result="effect1_dropShadow"/>
<feBlend mode="normal" in="SourceGraphic" in2="effect1_dropShadow" result="shape"/>
</filter>
</defs>
</svg>
