<svg width="184" height="224" viewBox="0 0 184 224" fill="none" xmlns="http://www.w3.org/2000/svg">
<g clip-path="url(#clip0)">
<rect width="184" height="224" rx="14" fill="#0C1B37"/>
<path d="M29.33 32L27.104 28.192C28.266 27.73 29.05 26.596 29.05 25.35C29.05 24.468 28.742 23.726 28.126 23.124C27.524 22.508 26.782 22.2 25.9 22.2H21.98V32H23.59V28.43H25.494L27.566 32H29.33ZM25.9 23.712C26.754 23.712 27.44 24.44 27.44 25.35C27.44 26.26 26.754 26.988 25.9 26.988H23.59V23.712H25.9ZM36.8608 29.144C36.9028 28.878 36.9168 28.668 36.9168 28.514C36.9168 27.492 36.5808 26.61 35.9228 25.896C35.2648 25.182 34.4248 24.818 33.4028 24.818C32.3248 24.818 31.4288 25.168 30.7428 25.882C30.0568 26.582 29.7068 27.45 29.7068 28.5C29.7068 29.564 30.0568 30.446 30.7568 31.146C31.4568 31.832 32.3808 32.182 33.5148 32.182C34.8728 32.182 35.8948 31.678 36.5808 30.656L35.3348 29.928C34.9288 30.502 34.3268 30.796 33.5288 30.796C32.3668 30.796 31.5128 30.208 31.2888 29.144H36.8608ZM31.2748 27.912C31.4848 26.848 32.2688 26.19 33.3888 26.19C34.3828 26.19 35.1808 26.778 35.3908 27.912H31.2748ZM41.9345 25H40.1985V23.04L38.6865 23.488V25H37.3985V26.456H38.6865V29.816C38.6865 31.65 39.6245 32.28 41.9345 32V30.642C40.7865 30.698 40.1985 30.712 40.1985 29.816V26.456H41.9345V25ZM46.3227 32.182C47.3587 32.182 48.2267 31.832 48.9407 31.118C49.6547 30.404 50.0187 29.536 50.0187 28.5C50.0187 27.464 49.6547 26.596 48.9407 25.882C48.2267 25.168 47.3587 24.818 46.3227 24.818C45.3007 24.818 44.4187 25.168 43.7047 25.882C42.9907 26.596 42.6267 27.464 42.6267 28.5C42.6267 29.536 42.9907 30.404 43.7047 31.118C44.4187 31.832 45.3007 32.182 46.3227 32.182ZM44.7687 30.082C44.3487 29.662 44.1387 29.13 44.1387 28.5C44.1387 27.87 44.3487 27.338 44.7687 26.918C45.1887 26.498 45.7067 26.288 46.3227 26.288C46.9387 26.288 47.4567 26.498 47.8767 26.918C48.2967 27.338 48.5067 27.87 48.5067 28.5C48.5067 29.13 48.2967 29.662 47.8767 30.082C47.4567 30.502 46.9387 30.712 46.3227 30.712C45.7067 30.712 45.1887 30.502 44.7687 30.082ZM56.1039 28.752C56.1039 30.11 55.3899 30.768 54.3259 30.768C53.3599 30.768 52.7579 30.194 52.7579 29.144V25H51.2459V29.298C51.2459 31.09 52.3239 32.182 53.9339 32.182C54.9279 32.182 55.6419 31.818 56.1039 31.104V32H57.6159V25H56.1039V28.752ZM60.896 25H59.384V32H60.896V28.472C60.896 27.758 61.106 27.24 61.54 26.932C61.974 26.61 62.478 26.47 63.052 26.512V24.874C62.002 24.874 61.274 25.308 60.896 26.176V25Z" fill="#C1C8FF"/>
<path d="M30.31 55L26.866 45.2H24.472L21.042 55H23.128L23.716 53.236H27.622L28.21 55H30.31ZM25.676 47.426L27.02 51.43H24.332L25.676 47.426ZM32.9836 55V44.78H31.1776V55H32.9836ZM35.5325 47.16C36.1485 47.16 36.6525 46.656 36.6525 46.054C36.6525 45.452 36.1485 44.934 35.5325 44.934C34.9305 44.934 34.4265 45.452 34.4265 46.054C34.4265 46.656 34.9305 47.16 35.5325 47.16ZM36.4425 55V48H34.6365V55H36.4425ZM45.8375 47.804C44.9135 47.804 44.2135 48.14 43.7515 48.812C43.3455 48.14 42.7015 47.804 41.8475 47.804C40.9655 47.804 40.3215 48.112 39.9015 48.742V48H38.0955V55H39.9015V51.066C39.9015 50.044 40.4195 49.484 41.2175 49.484C41.9595 49.484 42.3935 49.974 42.3935 50.814V55H44.1995V51.066C44.1995 50.044 44.6755 49.484 45.5015 49.484C46.2435 49.484 46.6775 49.974 46.6775 50.814V55H48.4835V50.688C48.4835 48.938 47.4475 47.804 45.8375 47.804ZM56.8214 52.242C56.8634 51.976 56.8914 51.738 56.8914 51.5C56.8914 50.45 56.5554 49.582 55.8834 48.868C55.2254 48.154 54.3714 47.804 53.3494 47.804C52.2714 47.804 51.3754 48.154 50.6894 48.868C50.0034 49.568 49.6534 50.45 49.6534 51.5C49.6534 52.564 50.0034 53.446 50.7034 54.146C51.4034 54.846 52.3274 55.196 53.4894 55.196C54.8334 55.196 55.8554 54.692 56.5414 53.698L55.0854 52.858C54.7354 53.32 54.2034 53.558 53.5174 53.558C52.4394 53.558 51.7814 53.124 51.5434 52.242H56.8214ZM51.5154 50.842C51.7254 49.946 52.3834 49.428 53.3494 49.428C54.1754 49.428 54.8754 49.89 55.0854 50.842H51.5154ZM62.0442 47.804C61.0922 47.804 60.3922 48.126 59.9582 48.784V48H58.1522V55H59.9582V51.22C59.9582 50.058 60.5602 49.484 61.4982 49.484C62.3382 49.484 62.8842 49.988 62.8842 50.926V55H64.6902V50.702C64.6902 49.792 64.4382 49.092 63.9342 48.574C63.4442 48.056 62.8142 47.804 62.0442 47.804ZM70.2363 48H68.6543V46.04L66.8483 46.586V48H65.6303V49.736H66.8483V52.648C66.8483 54.566 67.7583 55.28 70.2363 55V53.362C69.2003 53.418 68.6543 53.404 68.6543 52.648V49.736H70.2363V48ZM76.6108 48.826C76.0648 48.14 75.3088 47.804 74.3288 47.804C73.3908 47.804 72.5928 48.168 71.9208 48.882C71.2628 49.596 70.9268 50.464 70.9268 51.5C70.9268 52.536 71.2628 53.418 71.9208 54.132C72.5928 54.846 73.3908 55.196 74.3288 55.196C75.3088 55.196 76.0648 54.86 76.6108 54.174V55H78.4168V48H76.6108V48.826ZM73.2788 52.928C72.9148 52.55 72.7328 52.074 72.7328 51.5C72.7328 50.926 72.9148 50.45 73.2788 50.086C73.6428 49.708 74.1048 49.526 74.6648 49.526C75.2248 49.526 75.6868 49.708 76.0508 50.086C76.4288 50.45 76.6108 50.926 76.6108 51.5C76.6108 52.074 76.4288 52.55 76.0508 52.928C75.6868 53.292 75.2248 53.474 74.6648 53.474C74.1048 53.474 73.6428 53.292 73.2788 52.928ZM84.0585 48H82.4765V46.04L80.6705 46.586V48H79.4525V49.736H80.6705V52.648C80.6705 54.566 81.5805 55.28 84.0585 55V53.362C83.0225 53.418 82.4765 53.404 82.4765 52.648V49.736H84.0585V48ZM86.2279 47.16C86.8439 47.16 87.3479 46.656 87.3479 46.054C87.3479 45.452 86.8439 44.934 86.2279 44.934C85.6259 44.934 85.1219 45.452 85.1219 46.054C85.1219 46.656 85.6259 47.16 86.2279 47.16ZM87.1379 55V48H85.3319V55H87.1379ZM94.7548 54.132C95.4688 53.418 95.8328 52.536 95.8328 51.5C95.8328 50.464 95.4688 49.596 94.7548 48.882C94.0408 48.168 93.1588 47.804 92.1228 47.804C91.0868 47.804 90.2048 48.168 89.4908 48.882C88.7768 49.596 88.4268 50.464 88.4268 51.5C88.4268 52.536 88.7768 53.418 89.4908 54.132C90.2048 54.846 91.0868 55.196 92.1228 55.196C93.1588 55.196 94.0408 54.846 94.7548 54.132ZM90.7648 52.886C90.4148 52.522 90.2328 52.06 90.2328 51.5C90.2328 50.94 90.4148 50.478 90.7648 50.114C91.1288 49.75 91.5768 49.568 92.1228 49.568C92.6688 49.568 93.1168 49.75 93.4808 50.114C93.8448 50.478 94.0268 50.94 94.0268 51.5C94.0268 52.06 93.8448 52.522 93.4808 52.886C93.1168 53.25 92.6688 53.432 92.1228 53.432C91.5768 53.432 91.1288 53.25 90.7648 52.886ZM100.995 47.804C100.043 47.804 99.3433 48.126 98.9093 48.784V48H97.1033V55H98.9093V51.22C98.9093 50.058 99.5113 49.484 100.449 49.484C101.289 49.484 101.835 49.988 101.835 50.926V55H103.641V50.702C103.641 49.792 103.389 49.092 102.885 48.574C102.395 48.056 101.765 47.804 100.995 47.804Z" fill="#C1C8FF"/>
<circle cx="92.5" cy="208.5" r="2.5" fill="#7482FF"/>
<circle cx="81.5" cy="208.5" r="2.5" fill="#39428C"/>
<circle cx="103.5" cy="208.5" r="2.5" fill="#39428C"/>
<path d="M22.22 89.3L22.9 91.66L25.54 90.92V102H28.3V88H25.9L22.22 89.3ZM29.9544 89.3L30.6344 91.66L33.2744 90.92V102H36.0344V88H33.6344L29.9544 89.3ZM41.6288 93.1L41.8088 90.58H47.1888V88H39.2488L38.6888 95.78H42.9288C44.2688 95.78 45.0888 96.54 45.0888 97.68C45.0888 98.86 44.2688 99.58 42.8488 99.58C41.5088 99.58 40.6688 99.02 40.3288 97.9L37.9688 99.28C38.7488 101.26 40.5888 102.28 42.8488 102.28C44.2488 102.28 45.4288 101.88 46.3888 101.06C47.3688 100.24 47.8488 99.12 47.8488 97.68C47.8488 96.24 47.3888 95.12 46.4688 94.32C45.5488 93.5 44.4088 93.1 43.0688 93.1H41.6288ZM57.818 102V99.34H52.558L55.298 96.6C56.838 95.06 57.598 93.58 57.598 92.12C57.598 90.78 57.138 89.7 56.238 88.92C55.338 88.12 54.238 87.72 52.978 87.72C50.998 87.72 49.238 88.76 48.358 90.68L50.678 92.04C51.178 90.94 51.958 90.4 53.018 90.4C54.078 90.4 54.838 91.12 54.838 92.22C54.838 92.96 54.298 93.9 53.238 95.02L48.458 99.94V102H57.818Z" fill="#FFBA7B"/>
<rect x="21" y="111" width="104" height="10" rx="5" fill="#FFE1AD"/>
<g filter="url(#filter0_d)">
<rect x="21" y="111" width="71" height="10" rx="5" fill="#FBA454"/>
</g>
<path d="M69.18 97.68L72.888 93.6H71.52L68.016 97.392V93.6H66.9V102H68.016V97.968L71.64 102H73.008L69.18 97.68ZM76.1745 102.156C77.3385 102.156 78.3585 101.544 78.8745 100.596L77.9865 100.08C77.6505 100.716 76.9785 101.124 76.1745 101.124C75.5745 101.124 75.0705 100.92 74.6625 100.512C74.2665 100.104 74.0625 99.6 74.0625 99C74.0625 98.388 74.2665 97.884 74.6625 97.476C75.0705 97.068 75.5745 96.864 76.1745 96.864C76.9785 96.864 77.6505 97.284 77.9505 97.92L78.8265 97.416C78.3585 96.456 77.3625 95.844 76.1745 95.844C75.2745 95.844 74.5185 96.144 73.9185 96.756C73.3185 97.356 73.0185 98.1 73.0185 99C73.0185 99.9 73.3185 100.644 73.9185 101.256C74.5185 101.856 75.2745 102.156 76.1745 102.156ZM84.7913 97.032C84.2753 96.24 83.5193 95.844 82.5233 95.844C81.6833 95.844 80.9633 96.156 80.3753 96.768C79.7873 97.38 79.4873 98.124 79.4873 99C79.4873 99.876 79.7873 100.632 80.3753 101.244C80.9633 101.856 81.6833 102.156 82.5233 102.156C83.5193 102.156 84.2753 101.76 84.7913 100.968V102H85.8353V96H84.7913V97.032ZM82.6553 101.148C82.0553 101.148 81.5513 100.944 81.1433 100.536C80.7353 100.116 80.5312 99.612 80.5312 99C80.5312 98.388 80.7353 97.884 81.1433 97.476C81.5513 97.056 82.0553 96.852 82.6553 96.852C83.2673 96.852 83.7713 97.056 84.1793 97.476C84.5873 97.884 84.7913 98.388 84.7913 99C84.7913 99.612 84.5873 100.116 84.1793 100.536C83.7713 100.944 83.2673 101.148 82.6553 101.148ZM88.461 102V93.24H87.417V102H88.461Z" fill="white"/>
<path d="M136.88 110.4H136.256L131.456 121.2H132.08L136.88 110.4ZM143.196 120V118.92H139.392L141.54 116.784C142.536 115.788 143.04 114.864 143.04 114.012C143.04 113.232 142.776 112.608 142.26 112.14C141.744 111.672 141.132 111.444 140.424 111.444C139.284 111.444 138.3 112.008 137.772 113.1L138.708 113.652C139.068 112.896 139.644 112.524 140.436 112.524C141.264 112.524 141.924 113.076 141.924 114.024C141.924 114.588 141.528 115.272 140.736 116.064L137.772 119.088V120H143.196ZM145.59 114.876L145.734 112.644H149.322V111.6H144.726L144.414 115.956H146.79C147.81 115.956 148.542 116.544 148.542 117.516C148.542 118.488 147.822 119.064 146.766 119.064C145.842 119.064 145.17 118.632 144.942 117.816L143.994 118.356C144.39 119.52 145.482 120.156 146.766 120.156C147.57 120.156 148.242 119.916 148.806 119.448C149.37 118.98 149.646 118.332 149.646 117.516C149.646 116.688 149.37 116.052 148.818 115.584C148.278 115.116 147.606 114.876 146.814 114.876H145.59ZM156.047 118.968C156.611 118.176 156.899 117.12 156.899 115.8C156.899 114.48 156.611 113.424 156.047 112.632C155.483 111.84 154.679 111.444 153.659 111.444C152.639 111.444 151.835 111.84 151.271 112.632C150.707 113.424 150.419 114.48 150.419 115.8C150.419 117.12 150.707 118.176 151.271 118.968C151.835 119.76 152.639 120.156 153.659 120.156C154.679 120.156 155.483 119.76 156.047 118.968ZM151.535 115.8C151.535 113.7 152.303 112.524 153.659 112.524C155.015 112.524 155.795 113.724 155.795 115.8C155.795 117.876 155.015 119.064 153.659 119.064C152.303 119.064 151.535 117.876 151.535 115.8ZM163.605 118.968C164.17 118.176 164.458 117.12 164.458 115.8C164.458 114.48 164.17 113.424 163.605 112.632C163.042 111.84 162.238 111.444 161.218 111.444C160.198 111.444 159.394 111.84 158.83 112.632C158.266 113.424 157.978 114.48 157.978 115.8C157.978 117.12 158.266 118.176 158.83 118.968C159.394 119.76 160.198 120.156 161.218 120.156C162.238 120.156 163.042 119.76 163.605 118.968ZM159.094 115.8C159.094 113.7 159.862 112.524 161.218 112.524C162.574 112.524 163.354 113.724 163.354 115.8C163.354 117.876 162.574 119.064 161.218 119.064C159.862 119.064 159.094 117.876 159.094 115.8ZM139.904 131.904L142.772 129H141.428L138.836 131.652V126.6H137.792V135H138.836V132.156L141.572 135H142.868L139.904 131.904ZM146.108 135.156C147.272 135.156 148.292 134.544 148.808 133.596L147.92 133.08C147.584 133.716 146.912 134.124 146.108 134.124C145.508 134.124 145.004 133.92 144.596 133.512C144.2 133.104 143.996 132.6 143.996 132C143.996 131.388 144.2 130.884 144.596 130.476C145.004 130.068 145.508 129.864 146.108 129.864C146.912 129.864 147.584 130.284 147.884 130.92L148.76 130.416C148.292 129.456 147.296 128.844 146.108 128.844C145.208 128.844 144.452 129.144 143.852 129.756C143.252 130.356 142.952 131.1 142.952 132C142.952 132.9 143.252 133.644 143.852 134.256C144.452 134.856 145.208 135.156 146.108 135.156ZM154.725 130.032C154.209 129.24 153.453 128.844 152.457 128.844C151.617 128.844 150.897 129.156 150.309 129.768C149.721 130.38 149.421 131.124 149.421 132C149.421 132.876 149.721 133.632 150.309 134.244C150.897 134.856 151.617 135.156 152.457 135.156C153.453 135.156 154.209 134.76 154.725 133.968V135H155.769V129H154.725V130.032ZM152.589 134.148C151.989 134.148 151.485 133.944 151.077 133.536C150.669 133.116 150.465 132.612 150.465 132C150.465 131.388 150.669 130.884 151.077 130.476C151.485 130.056 151.989 129.852 152.589 129.852C153.201 129.852 153.705 130.056 154.113 130.476C154.521 130.884 154.725 131.388 154.725 132C154.725 132.612 154.521 133.116 154.113 133.536C153.705 133.944 153.201 134.148 152.589 134.148ZM158.395 135V126.24H157.351V135H158.395Z" fill="white"/>
<path d="M29.116 77L27.136 73.64C27.652 73.46 28.06 73.136 28.384 72.692C28.708 72.248 28.876 71.744 28.876 71.204C28.876 70.484 28.624 69.872 28.108 69.368C27.592 68.852 26.98 68.6 26.26 68.6H22.9V77H24.016V73.784H25.996L27.88 77H29.116ZM26.26 69.644C26.68 69.644 27.028 69.8 27.316 70.1C27.616 70.4 27.76 70.772 27.76 71.204C27.76 71.636 27.616 72.008 27.316 72.32C27.028 72.62 26.68 72.776 26.26 72.776H24.016V69.644H26.26ZM32.7993 68.588L31.8393 70.172H32.8473L34.0593 68.588H32.7993ZM35.5833 74.48C35.6073 74.324 35.6193 74.168 35.6193 74.012C35.6193 73.136 35.3433 72.392 34.7793 71.78C34.2273 71.156 33.5073 70.844 32.6313 70.844C31.7073 70.844 30.9513 71.144 30.3633 71.744C29.7753 72.344 29.4873 73.1 29.4873 74C29.4873 74.912 29.7873 75.668 30.3753 76.268C30.9753 76.856 31.7553 77.156 32.7033 77.156C33.8793 77.156 34.7553 76.7 35.3433 75.8L34.4553 75.296C34.0953 75.884 33.5193 76.172 32.7273 76.172C31.5873 76.172 30.7593 75.548 30.5553 74.48H35.5833ZM32.6313 71.828C33.5913 71.828 34.3833 72.428 34.5633 73.568H30.5553C30.7353 72.512 31.5153 71.828 32.6313 71.828ZM39.6276 77.156C40.7916 77.156 41.8116 76.544 42.3276 75.596L41.4396 75.08C41.1036 75.716 40.4316 76.124 39.6276 76.124C39.0276 76.124 38.5236 75.92 38.1156 75.512C37.7196 75.104 37.5156 74.6 37.5156 74C37.5156 73.388 37.7196 72.884 38.1156 72.476C38.5236 72.068 39.0276 71.864 39.6276 71.864C40.4316 71.864 41.1036 72.284 41.4036 72.92L42.2796 72.416C41.8116 71.456 40.8156 70.844 39.6276 70.844C38.7276 70.844 37.9716 71.144 37.3716 71.756C36.7716 72.356 36.4716 73.1 36.4716 74C36.4716 74.9 36.7716 75.644 37.3716 76.256C37.9716 76.856 38.7276 77.156 39.6276 77.156ZM47.5101 74.18C47.5101 75.524 46.8141 76.16 45.7701 76.16C44.8461 76.16 44.2821 75.596 44.2821 74.624V71H43.2381V74.684C43.2381 76.208 44.1621 77.156 45.5661 77.156C46.4421 77.156 47.0901 76.82 47.5101 76.136V77H48.5541V71H47.5101V74.18ZM55.9036 74.48C55.9276 74.324 55.9396 74.168 55.9396 74.012C55.9396 73.136 55.6636 72.392 55.0996 71.78C54.5476 71.156 53.8276 70.844 52.9516 70.844C52.0276 70.844 51.2716 71.144 50.6836 71.744C50.0956 72.344 49.8076 73.1 49.8076 74C49.8076 74.912 50.1076 75.668 50.6956 76.268C51.2956 76.856 52.0756 77.156 53.0236 77.156C54.1996 77.156 55.0756 76.7 55.6636 75.8L54.7756 75.296C54.4156 75.884 53.8396 76.172 53.0476 76.172C51.9076 76.172 51.0796 75.548 50.8756 74.48H55.9036ZM52.9516 71.828C53.9116 71.828 54.7036 72.428 54.8836 73.568H50.8756C51.0556 72.512 51.8356 71.828 52.9516 71.828ZM57.8053 72.62C57.8053 72.104 58.2853 71.816 58.8733 71.816C59.5093 71.816 59.9413 72.068 60.1573 72.584L61.0333 72.092C60.6493 71.312 59.8453 70.844 58.8733 70.844C58.2613 70.844 57.7573 71.012 57.3493 71.348C56.9533 71.684 56.7493 72.116 56.7493 72.632C56.7493 73.904 57.9733 74.216 58.9213 74.468C59.5813 74.624 60.1093 74.888 60.1093 75.356C60.1093 75.92 59.6053 76.172 58.9213 76.172C58.1893 76.172 57.6253 75.812 57.4333 75.236L56.5333 75.752C56.8813 76.604 57.7573 77.156 58.9213 77.156C59.5813 77.156 60.1093 76.988 60.5293 76.664C60.9493 76.34 61.1653 75.896 61.1653 75.356C61.1773 74.072 59.9293 73.724 58.9933 73.52C58.3333 73.34 57.8053 73.088 57.8053 72.62Z" fill="#C7C7C7"/>
<rect x="22" y="151" width="139" height="49" rx="4" fill="#091327"/>
<path d="M39.33 165.95L40.35 169.49L44.31 168.38V185H48.45V164H44.85L39.33 165.95ZM65.4516 185V181.01H57.5616L61.6716 176.9C63.9816 174.59 65.1216 172.37 65.1216 170.18C65.1216 168.17 64.4316 166.55 63.0816 165.38C61.7316 164.18 60.0816 163.58 58.1916 163.58C55.2216 163.58 52.5816 165.14 51.2616 168.02L54.7416 170.06C55.4916 168.41 56.6616 167.6 58.2516 167.6C59.8416 167.6 60.9816 168.68 60.9816 170.33C60.9816 171.44 60.1716 172.85 58.5816 174.53L51.4116 181.91V185H65.4516ZM79.3582 164H74.6182L68.0782 173.87C67.2682 175.1 66.8482 176.51 66.8482 178.1C66.8482 180.26 67.5382 182.03 68.9482 183.38C70.3582 184.73 72.1882 185.42 74.4382 185.42C76.6882 185.42 78.5182 184.73 79.9282 183.38C81.3382 182 82.0582 180.23 82.0582 178.1C82.0582 176 81.3682 174.29 80.0182 172.94C78.6682 171.59 76.8982 170.87 74.7082 170.81L79.3582 164ZM77.9482 178.1C77.9482 180.17 76.4482 181.52 74.4382 181.52C72.4282 181.52 70.9582 180.17 70.9582 178.1C70.9582 176.03 72.4282 174.71 74.4382 174.71C76.4482 174.71 77.9482 176.06 77.9482 178.1Z" fill="#FFBA7B"/>
<path d="M115.688 176.68L119.72 172.6H118.616L114.8 176.44V172.6H113.96V181H114.8V176.932L118.736 181H119.84L115.688 176.68ZM123.058 181.144C124.222 181.144 125.254 180.544 125.746 179.584L125.086 179.2C124.69 179.92 123.958 180.376 123.058 180.376C122.398 180.376 121.834 180.148 121.378 179.692C120.922 179.224 120.694 178.66 120.694 178C120.694 177.34 120.922 176.776 121.378 176.32C121.834 175.852 122.398 175.624 123.058 175.624C123.958 175.624 124.714 176.08 125.038 176.8L125.686 176.428C125.254 175.468 124.246 174.856 123.058 174.856C122.158 174.856 121.402 175.156 120.802 175.768C120.202 176.368 119.902 177.112 119.902 178C119.902 178.888 120.202 179.632 120.802 180.244C121.402 180.844 122.158 181.144 123.058 181.144ZM131.984 176.176C131.432 175.3 130.628 174.856 129.56 174.856C128.708 174.856 127.976 175.156 127.364 175.768C126.764 176.38 126.464 177.124 126.464 178C126.464 178.876 126.764 179.62 127.364 180.232C127.976 180.844 128.708 181.144 129.56 181.144C130.628 181.144 131.432 180.7 131.984 179.824V181H132.776V175H131.984V176.176ZM127.94 179.692C127.484 179.224 127.256 178.66 127.256 178C127.256 177.34 127.484 176.776 127.94 176.32C128.396 175.852 128.96 175.624 129.62 175.624C130.28 175.624 130.844 175.852 131.3 176.32C131.756 176.776 131.984 177.34 131.984 178C131.984 178.66 131.756 179.224 131.3 179.692C130.844 180.148 130.28 180.376 129.62 180.376C128.96 180.376 128.396 180.148 127.94 179.692ZM135.245 181V172.24H134.453V181H135.245Z" fill="white"/>
<path d="M27.7 139.644C28.312 139.224 28.612 138.636 28.612 137.892C28.612 137.244 28.384 136.704 27.928 136.26C27.472 135.816 26.92 135.6 26.26 135.6H22.9V144H26.524C27.208 144 27.784 143.772 28.252 143.316C28.72 142.86 28.96 142.296 28.96 141.624C28.96 140.724 28.468 140.016 27.7 139.644ZM26.26 136.644C26.608 136.644 26.896 136.776 27.136 137.028C27.388 137.28 27.508 137.58 27.508 137.928C27.508 138.648 26.968 139.212 26.26 139.212H24.016V136.644H26.26ZM24.016 142.956V140.232H26.524C26.896 140.232 27.208 140.364 27.46 140.628C27.724 140.892 27.856 141.216 27.856 141.588C27.856 142.356 27.28 142.956 26.524 142.956H24.016ZM31.2188 138H30.1748V144H31.2188V140.82C31.2188 140.16 31.3988 139.692 31.7708 139.392C32.1428 139.092 32.5748 138.96 33.0908 138.984V137.892C32.1908 137.892 31.5668 138.264 31.2188 139.008V138ZM38.2523 141.18C38.2523 142.524 37.5563 143.16 36.5123 143.16C35.5883 143.16 35.0243 142.596 35.0243 141.624V138H33.9803V141.684C33.9803 143.208 34.9043 144.156 36.3083 144.156C37.1843 144.156 37.8323 143.82 38.2523 143.136V144H39.2963V138H38.2523V141.18ZM41.9298 144V135.24H40.8857V144H41.9298ZM46.4985 135.588L45.5385 137.172H46.5465L47.7585 135.588H46.4985ZM49.2825 141.48C49.3065 141.324 49.3185 141.168 49.3185 141.012C49.3185 140.136 49.0425 139.392 48.4785 138.78C47.9265 138.156 47.2065 137.844 46.3305 137.844C45.4065 137.844 44.6505 138.144 44.0625 138.744C43.4745 139.344 43.1865 140.1 43.1865 141C43.1865 141.912 43.4865 142.668 44.0745 143.268C44.6745 143.856 45.4545 144.156 46.4025 144.156C47.5785 144.156 48.4545 143.7 49.0425 142.8L48.1545 142.296C47.7945 142.884 47.2185 143.172 46.4265 143.172C45.2865 143.172 44.4585 142.548 44.2545 141.48H49.2825ZM46.3305 138.828C47.2905 138.828 48.0825 139.428 48.2625 140.568H44.2545C44.4345 139.512 45.2145 138.828 46.3305 138.828ZM56.2668 141.48C56.2908 141.324 56.3028 141.168 56.3028 141.012C56.3028 140.136 56.0268 139.392 55.4628 138.78C54.9108 138.156 54.1908 137.844 53.3148 137.844C52.3908 137.844 51.6348 138.144 51.0468 138.744C50.4588 139.344 50.1708 140.1 50.1708 141C50.1708 141.912 50.4708 142.668 51.0588 143.268C51.6588 143.856 52.4388 144.156 53.3868 144.156C54.5628 144.156 55.4388 143.7 56.0268 142.8L55.1388 142.296C54.7788 142.884 54.2028 143.172 53.4108 143.172C52.2708 143.172 51.4428 142.548 51.2388 141.48H56.2668ZM53.3148 138.828C54.2748 138.828 55.0668 139.428 55.2468 140.568H51.2388C51.4188 139.512 52.1988 138.828 53.3148 138.828ZM58.1686 139.62C58.1686 139.104 58.6486 138.816 59.2366 138.816C59.8726 138.816 60.3046 139.068 60.5206 139.584L61.3966 139.092C61.0126 138.312 60.2086 137.844 59.2366 137.844C58.6246 137.844 58.1206 138.012 57.7126 138.348C57.3166 138.684 57.1126 139.116 57.1126 139.632C57.1126 140.904 58.3366 141.216 59.2846 141.468C59.9446 141.624 60.4726 141.888 60.4726 142.356C60.4726 142.92 59.9686 143.172 59.2846 143.172C58.5526 143.172 57.9886 142.812 57.7966 142.236L56.8966 142.752C57.2446 143.604 58.1206 144.156 59.2846 144.156C59.9446 144.156 60.4726 143.988 60.8926 143.664C61.3126 143.34 61.5286 142.896 61.5286 142.356C61.5406 141.072 60.2926 140.724 59.3566 140.52C58.6966 140.34 58.1686 140.088 58.1686 139.62Z" fill="#C7C7C7"/>
</g>
<defs>
<filter id="filter0_d" x="17" y="108" width="79" height="18" filterUnits="userSpaceOnUse" color-interpolation-filters="sRGB">
<feFlood flood-opacity="0" result="BackgroundImageFix"/>
<feColorMatrix in="SourceAlpha" type="matrix" values="0 0 0 0 0 0 0 0 0 0 0 0 0 0 0 0 0 0 127 0"/>
<feOffset dy="1"/>
<feGaussianBlur stdDeviation="2"/>
<feColorMatrix type="matrix" values="0 0 0 0 1 0 0 0 0 0.672032 0 0 0 0 0.295833 0 0 0 0.7 0"/>
<feBlend mode="normal" in2="BackgroundImageFix" result="effect1_dropShadow"/>
<feBlend mode="normal" in="SourceGraphic" in2="effect1_dropShadow" result="shape"/>
</filter>
<clipPath id="clip0">
<rect width="184" height="224" rx="14" fill="white"/>
</clipPath>
</defs>
</svg>
