<svg width="184" height="224" viewBox="0 0 184 224" fill="none" xmlns="http://www.w3.org/2000/svg">
<g clip-path="url(#clip0)">
<rect width="184" height="224" rx="14" fill="#0C1B37"/>
<path d="M29.33 32L27.104 28.192C28.266 27.73 29.05 26.596 29.05 25.35C29.05 24.468 28.742 23.726 28.126 23.124C27.524 22.508 26.782 22.2 25.9 22.2H21.98V32H23.59V28.43H25.494L27.566 32H29.33ZM25.9 23.712C26.754 23.712 27.44 24.44 27.44 25.35C27.44 26.26 26.754 26.988 25.9 26.988H23.59V23.712H25.9ZM36.8608 29.144C36.9028 28.878 36.9168 28.668 36.9168 28.514C36.9168 27.492 36.5808 26.61 35.9228 25.896C35.2648 25.182 34.4248 24.818 33.4028 24.818C32.3248 24.818 31.4288 25.168 30.7428 25.882C30.0568 26.582 29.7068 27.45 29.7068 28.5C29.7068 29.564 30.0568 30.446 30.7568 31.146C31.4568 31.832 32.3808 32.182 33.5148 32.182C34.8728 32.182 35.8948 31.678 36.5808 30.656L35.3348 29.928C34.9288 30.502 34.3268 30.796 33.5288 30.796C32.3668 30.796 31.5128 30.208 31.2888 29.144H36.8608ZM31.2748 27.912C31.4848 26.848 32.2688 26.19 33.3888 26.19C34.3828 26.19 35.1808 26.778 35.3908 27.912H31.2748ZM41.9345 25H40.1985V23.04L38.6865 23.488V25H37.3985V26.456H38.6865V29.816C38.6865 31.65 39.6245 32.28 41.9345 32V30.642C40.7865 30.698 40.1985 30.712 40.1985 29.816V26.456H41.9345V25ZM46.3227 32.182C47.3587 32.182 48.2267 31.832 48.9407 31.118C49.6547 30.404 50.0187 29.536 50.0187 28.5C50.0187 27.464 49.6547 26.596 48.9407 25.882C48.2267 25.168 47.3587 24.818 46.3227 24.818C45.3007 24.818 44.4187 25.168 43.7047 25.882C42.9907 26.596 42.6267 27.464 42.6267 28.5C42.6267 29.536 42.9907 30.404 43.7047 31.118C44.4187 31.832 45.3007 32.182 46.3227 32.182ZM44.7687 30.082C44.3487 29.662 44.1387 29.13 44.1387 28.5C44.1387 27.87 44.3487 27.338 44.7687 26.918C45.1887 26.498 45.7067 26.288 46.3227 26.288C46.9387 26.288 47.4567 26.498 47.8767 26.918C48.2967 27.338 48.5067 27.87 48.5067 28.5C48.5067 29.13 48.2967 29.662 47.8767 30.082C47.4567 30.502 46.9387 30.712 46.3227 30.712C45.7067 30.712 45.1887 30.502 44.7687 30.082ZM56.1039 28.752C56.1039 30.11 55.3899 30.768 54.3259 30.768C53.3599 30.768 52.7579 30.194 52.7579 29.144V25H51.2459V29.298C51.2459 31.09 52.3239 32.182 53.9339 32.182C54.9279 32.182 55.6419 31.818 56.1039 31.104V32H57.6159V25H56.1039V28.752ZM60.896 25H59.384V32H60.896V28.472C60.896 27.758 61.106 27.24 61.54 26.932C61.974 26.61 62.478 26.47 63.052 26.512V24.874C62.002 24.874 61.274 25.308 60.896 26.176V25Z" fill="#C1C8FF"/>
<path d="M29.512 45.2L26.712 49.834L23.898 45.2H21.91V55H23.842V48.658L26.6 53.194H26.824L29.582 48.644V55H31.5V45.2H29.512ZM38.562 48.826C38.016 48.14 37.26 47.804 36.28 47.804C35.342 47.804 34.544 48.168 33.872 48.882C33.214 49.596 32.878 50.464 32.878 51.5C32.878 52.536 33.214 53.418 33.872 54.132C34.544 54.846 35.342 55.196 36.28 55.196C37.26 55.196 38.016 54.86 38.562 54.174V55H40.368V48H38.562V48.826ZM35.23 52.928C34.866 52.55 34.684 52.074 34.684 51.5C34.684 50.926 34.866 50.45 35.23 50.086C35.594 49.708 36.056 49.526 36.616 49.526C37.176 49.526 37.638 49.708 38.002 50.086C38.38 50.45 38.562 50.926 38.562 51.5C38.562 52.074 38.38 52.55 38.002 52.928C37.638 53.292 37.176 53.474 36.616 53.474C36.056 53.474 35.594 53.292 35.23 52.928ZM45.3377 55.196C46.6957 55.196 47.8857 54.482 48.5017 53.376L46.9337 52.48C46.6537 53.054 46.0517 53.404 45.3237 53.404C44.7777 53.404 44.3297 53.222 43.9797 52.872C43.6297 52.508 43.4477 52.046 43.4477 51.5C43.4477 50.38 44.2457 49.582 45.3237 49.582C46.0377 49.582 46.6397 49.946 46.9197 50.52L48.4737 49.61C47.8997 48.504 46.6957 47.804 45.3377 47.804C44.2877 47.804 43.4057 48.154 42.6917 48.868C41.9917 49.582 41.6417 50.45 41.6417 51.5C41.6417 52.55 41.9917 53.418 42.6917 54.132C43.4057 54.846 44.2877 55.196 45.3377 55.196ZM51.3175 48H49.5115V55H51.3175V51.654C51.3175 50.982 51.5275 50.506 51.9615 50.212C52.3955 49.918 52.8995 49.806 53.4455 49.876V47.86C52.4935 47.86 51.6535 48.308 51.3175 49.204V48ZM60.206 54.132C60.92 53.418 61.284 52.536 61.284 51.5C61.284 50.464 60.92 49.596 60.206 48.882C59.492 48.168 58.61 47.804 57.574 47.804C56.538 47.804 55.656 48.168 54.942 48.882C54.228 49.596 53.878 50.464 53.878 51.5C53.878 52.536 54.228 53.418 54.942 54.132C55.656 54.846 56.538 55.196 57.574 55.196C58.61 55.196 59.492 54.846 60.206 54.132ZM56.216 52.886C55.866 52.522 55.684 52.06 55.684 51.5C55.684 50.94 55.866 50.478 56.216 50.114C56.58 49.75 57.028 49.568 57.574 49.568C58.12 49.568 58.568 49.75 58.932 50.114C59.296 50.478 59.478 50.94 59.478 51.5C59.478 52.06 59.296 52.522 58.932 52.886C58.568 53.25 58.12 53.432 57.574 53.432C57.028 53.432 56.58 53.25 56.216 52.886ZM66.4465 47.804C65.4945 47.804 64.7945 48.126 64.3605 48.784V48H62.5545V55H64.3605V51.22C64.3605 50.058 64.9625 49.484 65.9005 49.484C66.7405 49.484 67.2865 49.988 67.2865 50.926V55H69.0925V50.702C69.0925 49.792 68.8405 49.092 68.3365 48.574C67.8465 48.056 67.2165 47.804 66.4465 47.804ZM75.2546 51.78C75.2546 52.942 74.6526 53.516 73.7146 53.516C72.8746 53.516 72.3286 53.012 72.3286 52.074V48H70.5226V52.298C70.5226 53.208 70.7746 53.908 71.2646 54.426C71.7686 54.944 72.3986 55.196 73.1686 55.196C74.1206 55.196 74.8206 54.874 75.2546 54.216V55H77.0606V48H75.2546V51.78ZM82.7187 48H81.1367V46.04L79.3307 46.586V48H78.1127V49.736H79.3307V52.648C79.3307 54.566 80.2407 55.28 82.7187 55V53.362C81.6827 53.418 81.1367 53.404 81.1367 52.648V49.736H82.7187V48ZM85.9074 48H84.1014V55H85.9074V51.654C85.9074 50.982 86.1174 50.506 86.5514 50.212C86.9854 49.918 87.4894 49.806 88.0354 49.876V47.86C87.0834 47.86 86.2434 48.308 85.9074 49.204V48ZM89.9876 47.16C90.6036 47.16 91.1076 46.656 91.1076 46.054C91.1076 45.452 90.6036 44.934 89.9876 44.934C89.3856 44.934 88.8816 45.452 88.8816 46.054C88.8816 46.656 89.3856 47.16 89.9876 47.16ZM90.8976 55V48H89.0916V55H90.8976ZM100.293 47.804C99.3686 47.804 98.6686 48.14 98.2066 48.812C97.8006 48.14 97.1566 47.804 96.3026 47.804C95.4206 47.804 94.7766 48.112 94.3566 48.742V48H92.5506V55H94.3566V51.066C94.3566 50.044 94.8746 49.484 95.6726 49.484C96.4146 49.484 96.8486 49.974 96.8486 50.814V55H98.6546V51.066C98.6546 50.044 99.1306 49.484 99.9566 49.484C100.699 49.484 101.133 49.974 101.133 50.814V55H102.939V50.688C102.939 48.938 101.903 47.804 100.293 47.804ZM111.276 52.242C111.318 51.976 111.346 51.738 111.346 51.5C111.346 50.45 111.01 49.582 110.338 48.868C109.68 48.154 108.826 47.804 107.804 47.804C106.726 47.804 105.83 48.154 105.144 48.868C104.458 49.568 104.108 50.45 104.108 51.5C104.108 52.564 104.458 53.446 105.158 54.146C105.858 54.846 106.782 55.196 107.944 55.196C109.288 55.196 110.31 54.692 110.996 53.698L109.54 52.858C109.19 53.32 108.658 53.558 107.972 53.558C106.894 53.558 106.236 53.124 105.998 52.242H111.276ZM105.97 50.842C106.18 49.946 106.838 49.428 107.804 49.428C108.63 49.428 109.33 49.89 109.54 50.842H105.97ZM116.499 47.804C115.547 47.804 114.847 48.126 114.413 48.784V48H112.607V55H114.413V51.22C114.413 50.058 115.015 49.484 115.953 49.484C116.793 49.484 117.339 49.988 117.339 50.926V55H119.145V50.702C119.145 49.792 118.893 49.092 118.389 48.574C117.899 48.056 117.269 47.804 116.499 47.804ZM124.691 48H123.109V46.04L121.303 46.586V48H120.085V49.736H121.303V52.648C121.303 54.566 122.213 55.28 124.691 55V53.362C123.655 53.418 123.109 53.404 123.109 52.648V49.736H124.691V48ZM127.48 49.988C127.48 49.638 127.83 49.414 128.292 49.414C128.81 49.414 129.188 49.652 129.412 50.128L130.952 49.288C130.406 48.336 129.426 47.804 128.292 47.804C127.536 47.804 126.906 48 126.388 48.406C125.884 48.798 125.632 49.344 125.632 50.03C125.632 51.486 126.934 51.92 127.97 52.186C128.684 52.368 129.244 52.578 129.244 52.956C129.244 53.362 128.922 53.558 128.278 53.558C127.564 53.558 127.116 53.25 126.906 52.648L125.338 53.53C125.856 54.636 126.836 55.196 128.278 55.196C129.076 55.196 129.748 55 130.28 54.622C130.826 54.23 131.092 53.67 131.092 52.956C131.106 51.458 129.776 50.968 128.754 50.758C128.04 50.576 127.48 50.366 127.48 49.988Z" fill="#C1C8FF"/>
<circle cx="103.5" cy="208.5" r="2.5" fill="#7482FF"/>
<circle cx="81.5" cy="208.5" r="2.5" fill="#39428C"/>
<circle cx="92.5" cy="208.5" r="2.5" fill="#39428C"/>
<path d="M72.195 72.475L72.615 73.945L74.73 73.345V82H76.455V71.5H74.955L72.195 72.475ZM77.7761 72.475L78.1961 73.945L80.3111 73.345V82H82.0361V71.5H80.5361L77.7761 72.475ZM89.5071 76.54C90.3021 76.015 90.7071 75.28 90.7071 74.32C90.7071 73.36 90.3771 72.625 89.7321 72.1C89.0871 71.575 88.3071 71.305 87.3771 71.305C86.4321 71.305 85.6521 71.575 85.0071 72.1C84.3621 72.625 84.0471 73.36 84.0471 74.32C84.0471 75.28 84.4371 76.015 85.2321 76.54C84.2571 77.08 83.6871 78.01 83.6871 79.09C83.6871 80.05 84.0171 80.815 84.6921 81.37C85.3671 81.925 86.2671 82.195 87.3771 82.195C89.5971 82.195 91.0521 81.01 91.0521 79.09C91.0521 77.965 90.5421 77.11 89.5071 76.54ZM87.3771 72.94C88.2921 72.94 88.9821 73.45 88.9821 74.395C88.9821 75.295 88.2771 75.85 87.3771 75.85C86.4621 75.85 85.7721 75.295 85.7721 74.395C85.7721 73.45 86.4321 72.94 87.3771 72.94ZM87.3771 80.56C86.1921 80.56 85.4121 79.96 85.4121 78.925C85.4121 77.89 86.1921 77.29 87.3771 77.29C88.5321 77.29 89.3271 77.89 89.3271 78.925C89.3271 79.96 88.5321 80.56 87.3771 80.56Z" fill="white"/>
<rect x="21" y="87" width="103" height="10" rx="5" fill="#B3C0FF"/>
<g filter="url(#filter0_d)">
<rect x="21" y="87" width="67" height="10" rx="5" fill="#5E6FFF"/>
</g>
<path d="M103.772 74.032C103.256 73.24 102.5 72.844 101.516 72.844C100.664 72.844 99.932 73.144 99.344 73.756C98.756 74.356 98.456 75.088 98.456 75.964C98.456 76.84 98.756 77.572 99.344 78.184C99.932 78.796 100.664 79.096 101.516 79.096C102.488 79.096 103.244 78.7 103.772 77.896V78.748C103.772 79.888 103.016 80.584 101.768 80.584C100.796 80.584 100.136 80.248 99.812 79.576L98.9 80.092C99.392 81.04 100.4 81.556 101.744 81.556C102.584 81.556 103.304 81.304 103.904 80.812C104.504 80.32 104.804 79.636 104.804 78.748V73H103.772V74.032ZM103.772 75.964C103.772 76.576 103.568 77.08 103.16 77.488C102.752 77.896 102.248 78.1 101.636 78.1C101.024 78.1 100.52 77.896 100.112 77.488C99.704 77.08 99.5 76.576 99.5 75.964C99.5 75.364 99.704 74.86 100.112 74.452C100.52 74.044 101.024 73.84 101.636 73.84C102.248 73.84 102.752 74.044 103.16 74.452C103.568 74.86 103.772 75.364 103.772 75.964Z" fill="white"/>
<path d="M135.88 87.4H135.256L130.456 98.2H131.08L135.88 87.4ZM141.236 92.656C141.92 92.224 142.268 91.612 142.268 90.82C142.268 90.064 142.016 89.476 141.5 89.068C140.996 88.648 140.384 88.444 139.664 88.444C138.956 88.444 138.344 88.648 137.828 89.068C137.324 89.476 137.072 90.064 137.072 90.82C137.072 91.612 137.42 92.224 138.104 92.656C137.288 93.076 136.796 93.796 136.796 94.696C136.796 95.464 137.06 96.064 137.6 96.508C138.14 96.94 138.824 97.156 139.664 97.156C140.516 97.156 141.2 96.94 141.74 96.508C142.28 96.064 142.544 95.464 142.544 94.696C142.544 93.796 142.052 93.076 141.236 92.656ZM139.664 89.512C140.528 89.512 141.152 89.968 141.152 90.844C141.152 91.696 140.492 92.188 139.664 92.188C138.836 92.188 138.176 91.696 138.176 90.844C138.176 89.968 138.812 89.512 139.664 89.512ZM139.664 96.088C138.608 96.088 137.9 95.572 137.9 94.624C137.9 93.7 138.608 93.172 139.664 93.172C140.732 93.172 141.44 93.7 141.44 94.624C141.44 95.572 140.732 96.088 139.664 96.088ZM142.695 89.368L142.971 90.328L144.759 89.8V97H145.863V88.6H144.903L142.695 89.368ZM155.577 92.032C155.061 91.24 154.305 90.844 153.321 90.844C152.469 90.844 151.737 91.144 151.149 91.756C150.561 92.356 150.261 93.088 150.261 93.964C150.261 94.84 150.561 95.572 151.149 96.184C151.737 96.796 152.469 97.096 153.321 97.096C154.293 97.096 155.049 96.7 155.577 95.896V96.748C155.577 97.888 154.821 98.584 153.573 98.584C152.601 98.584 151.941 98.248 151.617 97.576L150.705 98.092C151.197 99.04 152.205 99.556 153.549 99.556C154.389 99.556 155.109 99.304 155.709 98.812C156.309 98.32 156.609 97.636 156.609 96.748V91H155.577V92.032ZM155.577 93.964C155.577 94.576 155.373 95.08 154.965 95.488C154.557 95.896 154.053 96.1 153.441 96.1C152.829 96.1 152.325 95.896 151.917 95.488C151.509 95.08 151.305 94.576 151.305 93.964C151.305 93.364 151.509 92.86 151.917 92.452C152.325 92.044 152.829 91.84 153.441 91.84C154.053 91.84 154.557 92.044 154.965 92.452C155.373 92.86 155.577 93.364 155.577 93.964Z" fill="#BDBDBD"/>
<path d="M25.8 76.836V77.844H28.884C28.656 79.152 27.576 80.064 25.896 80.064C24.912 80.064 24.108 79.752 23.484 79.128C22.872 78.504 22.56 77.724 22.56 76.8C22.56 75.876 22.872 75.096 23.484 74.472C24.096 73.836 24.888 73.524 25.848 73.524C27.012 73.524 28.056 74.124 28.536 75.036L29.496 74.472C29.148 73.86 28.644 73.38 27.996 73.008C27.348 72.636 26.64 72.444 25.86 72.444C24.6 72.444 23.544 72.864 22.704 73.716C21.876 74.556 21.456 75.588 21.456 76.8C21.456 78.012 21.876 79.044 22.704 79.896C23.544 80.736 24.6 81.156 25.884 81.156C27.12 81.156 28.116 80.796 28.872 80.076C29.628 79.344 30 78.432 30 77.34V76.836H25.8ZM32.293 81V72.24H31.249V81H32.293ZM38.0258 78.18C38.0258 79.524 37.3298 80.16 36.2858 80.16C35.3618 80.16 34.7978 79.596 34.7978 78.624V75H33.7538V78.684C33.7538 80.208 34.6777 81.156 36.0818 81.156C36.9578 81.156 37.6058 80.82 38.0258 80.136V81H39.0698V75H38.0258V78.18ZM43.4792 81.156C44.6432 81.156 45.6632 80.544 46.1792 79.596L45.2912 79.08C44.9552 79.716 44.2832 80.124 43.4792 80.124C42.8792 80.124 42.3752 79.92 41.9672 79.512C41.5712 79.104 41.3672 78.6 41.3672 78C41.3672 77.388 41.5712 76.884 41.9672 76.476C42.3752 76.068 42.8792 75.864 43.4792 75.864C44.2832 75.864 44.9552 76.284 45.2552 76.92L46.1312 76.416C45.6632 75.456 44.6672 74.844 43.4792 74.844C42.5792 74.844 41.8232 75.144 41.2232 75.756C40.6232 76.356 40.3232 77.1 40.3232 78C40.3232 78.9 40.6232 79.644 41.2232 80.256C41.8232 80.856 42.5792 81.156 43.4792 81.156ZM47.738 73.908C48.122 73.908 48.434 73.596 48.434 73.212C48.434 72.828 48.122 72.504 47.738 72.504C47.342 72.504 47.03 72.828 47.03 73.212C47.03 73.596 47.342 73.908 47.738 73.908ZM48.254 81V75H47.21V81H48.254ZM54.8147 76.032C54.2987 75.24 53.5427 74.844 52.5467 74.844C51.7067 74.844 50.9867 75.156 50.3987 75.768C49.8107 76.38 49.5107 77.124 49.5107 78C49.5107 78.876 49.8107 79.632 50.3987 80.244C50.9867 80.856 51.7067 81.156 52.5467 81.156C53.5427 81.156 54.2987 80.76 54.8147 79.968V81H55.8587V72.6H54.8147V76.032ZM52.6787 80.148C52.0787 80.148 51.5747 79.944 51.1667 79.536C50.7587 79.116 50.5547 78.612 50.5547 78C50.5547 77.388 50.7587 76.884 51.1667 76.476C51.5747 76.056 52.0787 75.852 52.6787 75.852C53.2907 75.852 53.7947 76.056 54.2027 76.476C54.6107 76.884 54.8147 77.388 54.8147 78C54.8147 78.612 54.6107 79.116 54.2027 79.536C53.7947 79.944 53.2907 80.148 52.6787 80.148ZM63.2004 78.48C63.2244 78.324 63.2364 78.168 63.2364 78.012C63.2364 77.136 62.9604 76.392 62.3964 75.78C61.8444 75.156 61.1244 74.844 60.2484 74.844C59.3244 74.844 58.5684 75.144 57.9804 75.744C57.3924 76.344 57.1044 77.1 57.1044 78C57.1044 78.912 57.4044 79.668 57.9924 80.268C58.5924 80.856 59.3724 81.156 60.3204 81.156C61.4964 81.156 62.3724 80.7 62.9604 79.8L62.0724 79.296C61.7124 79.884 61.1364 80.172 60.3444 80.172C59.2044 80.172 58.3764 79.548 58.1724 78.48H63.2004ZM60.2484 75.828C61.2084 75.828 62.0004 76.428 62.1804 77.568H58.1724C58.3524 76.512 59.1324 75.828 60.2484 75.828ZM65.1022 76.62C65.1022 76.104 65.5822 75.816 66.1702 75.816C66.8062 75.816 67.2382 76.068 67.4542 76.584L68.3302 76.092C67.9462 75.312 67.1422 74.844 66.1702 74.844C65.5582 74.844 65.0542 75.012 64.6462 75.348C64.2502 75.684 64.0462 76.116 64.0462 76.632C64.0462 77.904 65.2702 78.216 66.2182 78.468C66.8782 78.624 67.4062 78.888 67.4062 79.356C67.4062 79.92 66.9022 80.172 66.2182 80.172C65.4862 80.172 64.9222 79.812 64.7302 79.236L63.8302 79.752C64.1782 80.604 65.0542 81.156 66.2182 81.156C66.8782 81.156 67.4062 80.988 67.8262 80.664C68.2462 80.34 68.4622 79.896 68.4622 79.356C68.4742 78.072 67.2262 77.724 66.2902 77.52C65.6302 77.34 65.1022 77.088 65.1022 76.62Z" fill="#7482FF"/>
<path d="M79.805 113.46L79.985 111.12H84.245V109.5H78.395L77.99 115.14H81.05C82.205 115.14 82.97 115.785 82.97 116.82C82.97 117.855 82.205 118.515 81.02 118.515C79.91 118.515 79.22 118.035 78.935 117.09L77.45 117.945C77.99 119.4 79.355 120.195 81.02 120.195C82.055 120.195 82.925 119.895 83.63 119.295C84.335 118.695 84.695 117.87 84.695 116.82C84.695 115.77 84.35 114.945 83.66 114.36C82.97 113.76 82.13 113.46 81.125 113.46H79.805ZM92.4188 116.505V113.775H90.6788V116.505H87.3938L91.0088 109.5H89.1338L85.5188 116.505V118.11H90.6788V120H92.4188V118.11H93.6188V116.505H92.4188Z" fill="white"/>
<path d="M103.772 115.032C103.256 114.24 102.5 113.844 101.516 113.844C100.664 113.844 99.932 114.144 99.344 114.756C98.756 115.356 98.456 116.088 98.456 116.964C98.456 117.84 98.756 118.572 99.344 119.184C99.932 119.796 100.664 120.096 101.516 120.096C102.488 120.096 103.244 119.7 103.772 118.896V119.748C103.772 120.888 103.016 121.584 101.768 121.584C100.796 121.584 100.136 121.248 99.812 120.576L98.9 121.092C99.392 122.04 100.4 122.556 101.744 122.556C102.584 122.556 103.304 122.304 103.904 121.812C104.504 121.32 104.804 120.636 104.804 119.748V114H103.772V115.032ZM103.772 116.964C103.772 117.576 103.568 118.08 103.16 118.488C102.752 118.896 102.248 119.1 101.636 119.1C101.024 119.1 100.52 118.896 100.112 118.488C99.704 118.08 99.5 117.576 99.5 116.964C99.5 116.364 99.704 115.86 100.112 115.452C100.52 115.044 101.024 114.84 101.636 114.84C102.248 114.84 102.752 115.044 103.16 115.452C103.568 115.86 103.772 116.364 103.772 116.964Z" fill="white"/>
<path d="M136.88 127.4H136.256L131.456 138.2H132.08L136.88 127.4ZM142.236 132.656C142.92 132.224 143.268 131.612 143.268 130.82C143.268 130.064 143.016 129.476 142.5 129.068C141.996 128.648 141.384 128.444 140.664 128.444C139.956 128.444 139.344 128.648 138.828 129.068C138.324 129.476 138.072 130.064 138.072 130.82C138.072 131.612 138.42 132.224 139.104 132.656C138.288 133.076 137.796 133.796 137.796 134.696C137.796 135.464 138.06 136.064 138.6 136.508C139.14 136.94 139.824 137.156 140.664 137.156C141.516 137.156 142.2 136.94 142.74 136.508C143.28 136.064 143.544 135.464 143.544 134.696C143.544 133.796 143.052 133.076 142.236 132.656ZM140.664 129.512C141.528 129.512 142.152 129.968 142.152 130.844C142.152 131.696 141.492 132.188 140.664 132.188C139.836 132.188 139.176 131.696 139.176 130.844C139.176 129.968 139.812 129.512 140.664 129.512ZM140.664 136.088C139.608 136.088 138.9 135.572 138.9 134.624C138.9 133.7 139.608 133.172 140.664 133.172C141.732 133.172 142.44 133.7 142.44 134.624C142.44 135.572 141.732 136.088 140.664 136.088ZM143.695 129.368L143.971 130.328L145.759 129.8V137H146.863V128.6H145.903L143.695 129.368ZM156.577 132.032C156.061 131.24 155.305 130.844 154.321 130.844C153.469 130.844 152.737 131.144 152.149 131.756C151.561 132.356 151.261 133.088 151.261 133.964C151.261 134.84 151.561 135.572 152.149 136.184C152.737 136.796 153.469 137.096 154.321 137.096C155.293 137.096 156.049 136.7 156.577 135.896V136.748C156.577 137.888 155.821 138.584 154.573 138.584C153.601 138.584 152.941 138.248 152.617 137.576L151.705 138.092C152.197 139.04 153.205 139.556 154.549 139.556C155.389 139.556 156.109 139.304 156.709 138.812C157.309 138.32 157.609 137.636 157.609 136.748V131H156.577V132.032ZM156.577 133.964C156.577 134.576 156.373 135.08 155.965 135.488C155.557 135.896 155.053 136.1 154.441 136.1C153.829 136.1 153.325 135.896 152.917 135.488C152.509 135.08 152.305 134.576 152.305 133.964C152.305 133.364 152.509 132.86 152.917 132.452C153.325 132.044 153.829 131.84 154.441 131.84C155.053 131.84 155.557 132.044 155.965 132.452C156.373 132.86 156.577 133.364 156.577 133.964Z" fill="#BDBDBD"/>
<path d="M22.9 111.6V120H24.016V117H25.948C26.728 117 27.364 116.736 27.88 116.22C28.396 115.704 28.66 115.056 28.66 114.3C28.66 113.532 28.396 112.896 27.88 112.38C27.364 111.864 26.728 111.6 25.948 111.6H22.9ZM24.016 115.956V112.644H25.948C26.872 112.644 27.556 113.34 27.556 114.3C27.556 114.768 27.4 115.164 27.1 115.488C26.8 115.8 26.416 115.956 25.948 115.956H24.016ZM30.7852 114H29.7412V120H30.7852V116.82C30.7852 116.16 30.9652 115.692 31.3372 115.392C31.7092 115.092 32.1412 114.96 32.6572 114.984V113.892C31.7572 113.892 31.1332 114.264 30.7852 115.008V114ZM38.4146 119.244C39.0266 118.632 39.3386 117.888 39.3386 117C39.3386 116.112 39.0266 115.368 38.4146 114.756C37.8026 114.144 37.0466 113.844 36.1706 113.844C35.2946 113.844 34.5386 114.144 33.9266 114.756C33.3146 115.368 33.0146 116.112 33.0146 117C33.0146 117.888 33.3146 118.632 33.9266 119.244C34.5386 119.856 35.2946 120.156 36.1706 120.156C37.0466 120.156 37.8026 119.856 38.4146 119.244ZM36.1706 119.136C35.5826 119.136 35.0786 118.932 34.6706 118.524C34.2626 118.116 34.0586 117.612 34.0586 117C34.0586 116.388 34.2626 115.884 34.6706 115.476C35.0786 115.068 35.5826 114.864 36.1706 114.864C36.7706 114.864 37.2746 115.068 37.6826 115.476C38.0906 115.884 38.2946 116.388 38.2946 117C38.2946 117.612 38.0906 118.116 37.6826 118.524C37.2746 118.932 36.7706 119.136 36.1706 119.136ZM43.7044 114H42.1084V112.32L41.0644 112.632V114H39.8764V115.008H41.0644V118.26C41.0644 119.748 41.8804 120.24 43.7044 120V119.064C42.6364 119.112 42.1084 119.184 42.1084 118.26V115.008H43.7044V114ZM47.6118 111.588L46.6518 113.172H47.6598L48.8718 111.588H47.6118ZM50.3958 117.48C50.4198 117.324 50.4318 117.168 50.4318 117.012C50.4318 116.136 50.1558 115.392 49.5918 114.78C49.0398 114.156 48.3198 113.844 47.4438 113.844C46.5198 113.844 45.7638 114.144 45.1758 114.744C44.5878 115.344 44.2998 116.1 44.2998 117C44.2998 117.912 44.5998 118.668 45.1878 119.268C45.7878 119.856 46.5678 120.156 47.5158 120.156C48.6918 120.156 49.5678 119.7 50.1558 118.8L49.2678 118.296C48.9078 118.884 48.3318 119.172 47.5398 119.172C46.3998 119.172 45.5718 118.548 45.3678 117.48H50.3958ZM47.4438 114.828C48.4038 114.828 49.1958 115.428 49.3758 116.568H45.3678C45.5478 115.512 46.3278 114.828 47.4438 114.828ZM52.1598 112.908C52.5438 112.908 52.8558 112.596 52.8558 112.212C52.8558 111.828 52.5438 111.504 52.1598 111.504C51.7638 111.504 51.4518 111.828 51.4518 112.212C51.4518 112.596 51.7638 112.908 52.1598 112.908ZM52.6758 120V114H51.6318V120H52.6758ZM57.2566 113.844C56.3806 113.844 55.7326 114.18 55.3126 114.864V114H54.2686V120H55.3126V116.82C55.3126 115.476 56.0086 114.84 57.0526 114.84C57.9766 114.84 58.5406 115.404 58.5406 116.376V120H59.5846V116.316C59.5846 114.792 58.6606 113.844 57.2566 113.844ZM66.802 117.48C66.826 117.324 66.838 117.168 66.838 117.012C66.838 116.136 66.562 115.392 65.998 114.78C65.446 114.156 64.726 113.844 63.85 113.844C62.926 113.844 62.17 114.144 61.582 114.744C60.994 115.344 60.706 116.1 60.706 117C60.706 117.912 61.006 118.668 61.594 119.268C62.194 119.856 62.974 120.156 63.922 120.156C65.098 120.156 65.974 119.7 66.562 118.8L65.674 118.296C65.314 118.884 64.738 119.172 63.946 119.172C62.806 119.172 61.978 118.548 61.774 117.48H66.802ZM63.85 114.828C64.81 114.828 65.602 115.428 65.782 116.568H61.774C61.954 115.512 62.734 114.828 63.85 114.828ZM68.7037 115.62C68.7037 115.104 69.1837 114.816 69.7717 114.816C70.4077 114.816 70.8397 115.068 71.0557 115.584L71.9317 115.092C71.5477 114.312 70.7437 113.844 69.7717 113.844C69.1597 113.844 68.6557 114.012 68.2477 114.348C67.8517 114.684 67.6477 115.116 67.6477 115.632C67.6477 116.904 68.8717 117.216 69.8197 117.468C70.4797 117.624 71.0077 117.888 71.0077 118.356C71.0077 118.92 70.5037 119.172 69.8197 119.172C69.0877 119.172 68.5237 118.812 68.3317 118.236L67.4317 118.752C67.7797 119.604 68.6557 120.156 69.8197 120.156C70.4797 120.156 71.0077 119.988 71.4277 119.664C71.8477 119.34 72.0637 118.896 72.0637 118.356C72.0757 117.072 70.8277 116.724 69.8917 116.52C69.2317 116.34 68.7037 116.088 68.7037 115.62Z" fill="#5E6FFF"/>
<rect x="22" y="128" width="103" height="10" rx="5" fill="#B3C0FF"/>
<g filter="url(#filter1_d)">
<rect x="22" y="128" width="67" height="10" rx="5" fill="#5E6FFF"/>
</g>
<path d="M71.345 159.54C72.14 159.015 72.545 158.28 72.545 157.32C72.545 156.36 72.215 155.625 71.57 155.1C70.925 154.575 70.145 154.305 69.215 154.305C68.27 154.305 67.49 154.575 66.845 155.1C66.2 155.625 65.885 156.36 65.885 157.32C65.885 158.28 66.275 159.015 67.07 159.54C66.095 160.08 65.525 161.01 65.525 162.09C65.525 163.05 65.855 163.815 66.53 164.37C67.205 164.925 68.105 165.195 69.215 165.195C71.435 165.195 72.89 164.01 72.89 162.09C72.89 160.965 72.38 160.11 71.345 159.54ZM69.215 155.94C70.13 155.94 70.82 156.45 70.82 157.395C70.82 158.295 70.115 158.85 69.215 158.85C68.3 158.85 67.61 158.295 67.61 157.395C67.61 156.45 68.27 155.94 69.215 155.94ZM69.215 163.56C68.03 163.56 67.25 162.96 67.25 161.925C67.25 160.89 68.03 160.29 69.215 160.29C70.37 160.29 71.165 160.89 71.165 161.925C71.165 162.96 70.37 163.56 69.215 163.56ZM81.1632 163.71C81.8982 162.72 82.2582 161.4 82.2582 159.75C82.2582 158.1 81.8982 156.78 81.1632 155.79C80.4432 154.8 79.4382 154.305 78.1332 154.305C76.8282 154.305 75.8232 154.8 75.0882 155.79C74.3682 156.78 74.0082 158.1 74.0082 159.75C74.0082 161.4 74.3682 162.72 75.0882 163.71C75.8232 164.7 76.8282 165.195 78.1332 165.195C79.4382 165.195 80.4432 164.7 81.1632 163.71ZM78.1332 163.515C76.5882 163.515 75.7332 162.165 75.7332 159.75C75.7332 157.335 76.5882 155.985 78.1332 155.985C79.6932 155.985 80.5332 157.335 80.5332 159.75C80.5332 162.165 79.6932 163.515 78.1332 163.515Z" fill="white"/>
<path d="M92.772 159.032C92.256 158.24 91.5 157.844 90.516 157.844C89.664 157.844 88.932 158.144 88.344 158.756C87.756 159.356 87.456 160.088 87.456 160.964C87.456 161.84 87.756 162.572 88.344 163.184C88.932 163.796 89.664 164.096 90.516 164.096C91.488 164.096 92.244 163.7 92.772 162.896V163.748C92.772 164.888 92.016 165.584 90.768 165.584C89.796 165.584 89.136 165.248 88.812 164.576L87.9 165.092C88.392 166.04 89.4 166.556 90.744 166.556C91.584 166.556 92.304 166.304 92.904 165.812C93.504 165.32 93.804 164.636 93.804 163.748V158H92.772V159.032ZM92.772 160.964C92.772 161.576 92.568 162.08 92.16 162.488C91.752 162.896 91.248 163.1 90.636 163.1C90.024 163.1 89.52 162.896 89.112 162.488C88.704 162.08 88.5 161.576 88.5 160.964C88.5 160.364 88.704 159.86 89.112 159.452C89.52 159.044 90.024 158.84 90.636 158.84C91.248 158.84 91.752 159.044 92.16 159.452C92.568 159.86 92.772 160.364 92.772 160.964Z" fill="white"/>
<path d="M136.88 169.4H136.256L131.456 180.2H132.08L136.88 169.4ZM142.236 174.656C142.92 174.224 143.268 173.612 143.268 172.82C143.268 172.064 143.016 171.476 142.5 171.068C141.996 170.648 141.384 170.444 140.664 170.444C139.956 170.444 139.344 170.648 138.828 171.068C138.324 171.476 138.072 172.064 138.072 172.82C138.072 173.612 138.42 174.224 139.104 174.656C138.288 175.076 137.796 175.796 137.796 176.696C137.796 177.464 138.06 178.064 138.6 178.508C139.14 178.94 139.824 179.156 140.664 179.156C141.516 179.156 142.2 178.94 142.74 178.508C143.28 178.064 143.544 177.464 143.544 176.696C143.544 175.796 143.052 175.076 142.236 174.656ZM140.664 171.512C141.528 171.512 142.152 171.968 142.152 172.844C142.152 173.696 141.492 174.188 140.664 174.188C139.836 174.188 139.176 173.696 139.176 172.844C139.176 171.968 139.812 171.512 140.664 171.512ZM140.664 178.088C139.608 178.088 138.9 177.572 138.9 176.624C138.9 175.7 139.608 175.172 140.664 175.172C141.732 175.172 142.44 175.7 142.44 176.624C142.44 177.572 141.732 178.088 140.664 178.088ZM143.695 171.368L143.971 172.328L145.759 171.8V179H146.863V170.6H145.903L143.695 171.368ZM156.577 174.032C156.061 173.24 155.305 172.844 154.321 172.844C153.469 172.844 152.737 173.144 152.149 173.756C151.561 174.356 151.261 175.088 151.261 175.964C151.261 176.84 151.561 177.572 152.149 178.184C152.737 178.796 153.469 179.096 154.321 179.096C155.293 179.096 156.049 178.7 156.577 177.896V178.748C156.577 179.888 155.821 180.584 154.573 180.584C153.601 180.584 152.941 180.248 152.617 179.576L151.705 180.092C152.197 181.04 153.205 181.556 154.549 181.556C155.389 181.556 156.109 181.304 156.709 180.812C157.309 180.32 157.609 179.636 157.609 178.748V173H156.577V174.032ZM156.577 175.964C156.577 176.576 156.373 177.08 155.965 177.488C155.557 177.896 155.053 178.1 154.441 178.1C153.829 178.1 153.325 177.896 152.917 177.488C152.509 177.08 152.305 176.576 152.305 175.964C152.305 175.364 152.509 174.86 152.917 174.452C153.325 174.044 153.829 173.84 154.441 173.84C155.053 173.84 155.557 174.044 155.965 174.452C156.373 174.86 156.577 175.364 156.577 175.964Z" fill="#BDBDBD"/>
<path d="M24.016 156.6H22.9V165H27.64V163.944H24.016V156.6ZM29.1794 157.908C29.5634 157.908 29.8754 157.596 29.8754 157.212C29.8754 156.828 29.5634 156.504 29.1794 156.504C28.7834 156.504 28.4714 156.828 28.4714 157.212C28.4714 157.596 28.7834 157.908 29.1794 157.908ZM29.6954 165V159H28.6514V165H29.6954ZM34.6001 158.844C33.6041 158.844 32.8481 159.24 32.3321 160.032V159H31.2881V167.4H32.3321V163.968C32.8481 164.76 33.6041 165.156 34.6001 165.156C35.4401 165.156 36.1601 164.856 36.7481 164.244C37.3361 163.632 37.6361 162.876 37.6361 162C37.6361 161.124 37.3361 160.38 36.7481 159.768C36.1601 159.156 35.4401 158.844 34.6001 158.844ZM34.4681 164.148C33.8561 164.148 33.3521 163.944 32.9441 163.536C32.5361 163.116 32.3321 162.612 32.3321 162C32.3321 161.388 32.5361 160.884 32.9441 160.476C33.3521 160.056 33.8561 159.852 34.4681 159.852C35.0681 159.852 35.5721 160.056 35.9801 160.476C36.3881 160.884 36.5921 161.388 36.5921 162C36.5921 162.612 36.3881 163.116 35.9801 163.536C35.5721 163.944 35.0681 164.148 34.4681 164.148ZM39.4098 157.908C39.7938 157.908 40.1058 157.596 40.1058 157.212C40.1058 156.828 39.7938 156.504 39.4098 156.504C39.0138 156.504 38.7018 156.828 38.7018 157.212C38.7018 157.596 39.0138 157.908 39.4098 157.908ZM39.9258 165V159H38.8818V165H39.9258ZM46.4866 160.032C45.9706 159.24 45.2146 158.844 44.2186 158.844C43.3786 158.844 42.6586 159.156 42.0706 159.768C41.4826 160.38 41.1826 161.124 41.1826 162C41.1826 162.876 41.4826 163.632 42.0706 164.244C42.6586 164.856 43.3786 165.156 44.2186 165.156C45.2146 165.156 45.9706 164.76 46.4866 163.968V165H47.5306V156.6H46.4866V160.032ZM44.3506 164.148C43.7506 164.148 43.2466 163.944 42.8386 163.536C42.4306 163.116 42.2266 162.612 42.2266 162C42.2266 161.388 42.4306 160.884 42.8386 160.476C43.2466 160.056 43.7506 159.852 44.3506 159.852C44.9626 159.852 45.4666 160.056 45.8746 160.476C46.2826 160.884 46.4866 161.388 46.4866 162C46.4866 162.612 46.2826 163.116 45.8746 163.536C45.4666 163.944 44.9626 164.148 44.3506 164.148ZM54.8723 162.48C54.8963 162.324 54.9083 162.168 54.9083 162.012C54.9083 161.136 54.6323 160.392 54.0683 159.78C53.5163 159.156 52.7963 158.844 51.9203 158.844C50.9963 158.844 50.2403 159.144 49.6523 159.744C49.0643 160.344 48.7763 161.1 48.7763 162C48.7763 162.912 49.0763 163.668 49.6643 164.268C50.2643 164.856 51.0443 165.156 51.9923 165.156C53.1683 165.156 54.0443 164.7 54.6323 163.8L53.7443 163.296C53.3843 163.884 52.8083 164.172 52.0163 164.172C50.8763 164.172 50.0483 163.548 49.8443 162.48H54.8723ZM51.9203 159.828C52.8803 159.828 53.6723 160.428 53.8523 161.568H49.8443C50.0243 160.512 50.8043 159.828 51.9203 159.828ZM56.774 160.62C56.774 160.104 57.254 159.816 57.842 159.816C58.478 159.816 58.91 160.068 59.126 160.584L60.002 160.092C59.618 159.312 58.814 158.844 57.842 158.844C57.23 158.844 56.726 159.012 56.318 159.348C55.922 159.684 55.718 160.116 55.718 160.632C55.718 161.904 56.942 162.216 57.89 162.468C58.55 162.624 59.078 162.888 59.078 163.356C59.078 163.92 58.574 164.172 57.89 164.172C57.158 164.172 56.594 163.812 56.402 163.236L55.502 163.752C55.85 164.604 56.726 165.156 57.89 165.156C58.55 165.156 59.078 164.988 59.498 164.664C59.918 164.34 60.134 163.896 60.134 163.356C60.146 162.072 58.898 161.724 57.962 161.52C57.302 161.34 56.774 161.088 56.774 160.62Z" fill="#5E6FFF"/>
<rect x="22" y="171" width="103" height="10" rx="5" fill="#FF9C94"/>
<g filter="url(#filter2_d)">
<path d="M22 176C22 173.239 24.2386 171 27 171H104.5C107.261 171 109.5 173.239 109.5 176C109.5 178.761 107.261 181 104.5 181H27C24.2386 181 22 178.761 22 176Z" fill="#FF5959"/>
</g>
</g>
<defs>
<filter id="filter0_d" x="17" y="84" width="75" height="18" filterUnits="userSpaceOnUse" color-interpolation-filters="sRGB">
<feFlood flood-opacity="0" result="BackgroundImageFix"/>
<feColorMatrix in="SourceAlpha" type="matrix" values="0 0 0 0 0 0 0 0 0 0 0 0 0 0 0 0 0 0 127 0"/>
<feOffset dy="1"/>
<feGaussianBlur stdDeviation="2"/>
<feColorMatrix type="matrix" values="0 0 0 0 0.454902 0 0 0 0 0.509804 0 0 0 0 1 0 0 0 1 0"/>
<feBlend mode="normal" in2="BackgroundImageFix" result="effect1_dropShadow"/>
<feBlend mode="normal" in="SourceGraphic" in2="effect1_dropShadow" result="shape"/>
</filter>
<filter id="filter1_d" x="18" y="125" width="75" height="18" filterUnits="userSpaceOnUse" color-interpolation-filters="sRGB">
<feFlood flood-opacity="0" result="BackgroundImageFix"/>
<feColorMatrix in="SourceAlpha" type="matrix" values="0 0 0 0 0 0 0 0 0 0 0 0 0 0 0 0 0 0 127 0"/>
<feOffset dy="1"/>
<feGaussianBlur stdDeviation="2"/>
<feColorMatrix type="matrix" values="0 0 0 0 0.454902 0 0 0 0 0.509804 0 0 0 0 1 0 0 0 1 0"/>
<feBlend mode="normal" in2="BackgroundImageFix" result="effect1_dropShadow"/>
<feBlend mode="normal" in="SourceGraphic" in2="effect1_dropShadow" result="shape"/>
</filter>
<filter id="filter2_d" x="18" y="168" width="95.5" height="18" filterUnits="userSpaceOnUse" color-interpolation-filters="sRGB">
<feFlood flood-opacity="0" result="BackgroundImageFix"/>
<feColorMatrix in="SourceAlpha" type="matrix" values="0 0 0 0 0 0 0 0 0 0 0 0 0 0 0 0 0 0 127 0"/>
<feOffset dy="1"/>
<feGaussianBlur stdDeviation="2"/>
<feColorMatrix type="matrix" values="0 0 0 0 1 0 0 0 0 0.34902 0 0 0 0 0.34902 0 0 0 1 0"/>
<feBlend mode="normal" in2="BackgroundImageFix" result="effect1_dropShadow"/>
<feBlend mode="normal" in="SourceGraphic" in2="effect1_dropShadow" result="shape"/>
</filter>
<clipPath id="clip0">
<rect width="184" height="224" rx="14" fill="white"/>
</clipPath>
</defs>
</svg>
